<svg width="194" height="90" viewBox="0 0 194 90" fill="none" xmlns="http://www.w3.org/2000/svg">
<mask id="mask0_1_263" style="mask-type:alpha" maskUnits="userSpaceOnUse" x="0" y="0" width="194" height="90">
<rect x="0.928558" width="192.857" height="90" fill="#D9D9D9"/>
</mask>
<g mask="url(#mask0_1_263)">
</g>
<g clip-path="url(#clip0_1_263)">
<path d="M21.6878 37.5372C21.632 37.5112 21.5711 37.4982 21.5096 37.4991C21.453 37.5117 21.3943 37.5117 21.3377 37.4991H21.2613L21.185 37.4672C21.1023 37.4733 21.0194 37.4733 20.9367 37.4672C20.8403 37.4559 20.7447 37.4389 20.6503 37.4163H20.3384C20.2357 37.4056 20.1336 37.3885 20.0329 37.3654C19.9292 37.3749 19.8248 37.3749 19.721 37.3654H19.4155C19.2209 37.3695 19.0264 37.3503 18.8363 37.3081H18.5308H18.2253H17.035H16.9714H16.9141H16.494C15.5492 37.3136 14.6055 37.3753 13.668 37.4927C12.7956 37.6021 11.9306 37.7636 11.0775 37.9764C10.2595 38.1727 9.45735 38.4302 8.6779 38.7466C7.94406 38.9979 7.23112 39.3064 6.54565 39.6695C5.92523 40.0375 5.34126 40.4637 4.80167 40.9425C4.3249 41.3661 3.90742 41.8521 3.56051 42.3873C3.23285 42.8749 2.97571 43.4063 2.79672 43.9658C2.62042 44.5215 2.53236 45.1014 2.53575 45.6843C2.53422 46.2147 2.60053 46.743 2.73307 47.2565C2.86528 47.7471 3.0622 48.218 3.31864 48.6568C3.59125 49.0993 3.91607 49.5075 4.28611 49.8725C4.69453 50.28 5.14711 50.6408 5.63547 50.9481C6.16551 51.286 6.72593 51.5737 7.30944 51.8074C7.93156 52.0605 8.56939 52.2731 9.21892 52.4439C9.88724 52.5776 10.5937 52.673 11.3512 52.7494C12.1255 52.8223 12.903 52.8563 13.6807 52.8512H14.3172H14.3936H14.47H15.1638H15.1956H15.7366H15.813H15.8894H16.3922H16.5258C16.5701 52.8441 16.6152 52.8441 16.6595 52.8512C16.7035 52.8409 16.7492 52.8409 16.7932 52.8512H17.4679C17.5121 52.8584 17.5573 52.8584 17.6015 52.8512C17.6458 52.8441 17.6909 52.8441 17.7352 52.8512C17.7663 52.8415 17.7996 52.8415 17.8307 52.8512H18.238C18.2802 52.8314 18.3254 52.8185 18.3717 52.8131H18.849H19.18L19.5046 52.7621C19.5554 52.7683 19.6067 52.7683 19.6574 52.7621C19.7081 52.756 19.7594 52.756 19.8101 52.7621L20.1411 52.6794L20.4275 52.5903L21.1786 48.5422C20.9176 48.6313 20.6694 48.7077 20.4275 48.7777C20.1857 48.8477 19.9629 48.905 19.7911 48.9495C19.5822 49.0135 19.3697 49.0645 19.1546 49.1023C18.9636 49.1405 18.7918 49.1787 18.639 49.2232L18.098 49.3123L17.5633 49.4015L17.0605 49.4651C16.9091 49.4905 16.7558 49.5032 16.6022 49.5033C16.5321 49.5279 16.4596 49.5449 16.3858 49.5542H16.214H14.9728C14.5082 49.5542 14.0817 49.5542 13.6998 49.516C13.318 49.4871 12.9391 49.4275 12.5669 49.3378C12.2463 49.2766 11.9312 49.1893 11.6249 49.0768C11.3277 48.8677 11.0545 48.6265 10.8101 48.3576C10.5687 48.2134 10.3427 48.0449 10.1355 47.8548C9.94174 47.684 9.77821 47.4817 9.65173 47.2565C9.53922 47.0452 9.45368 46.8207 9.39714 46.5882C9.32013 46.336 9.27522 46.0751 9.26347 45.8116C9.26309 45.5012 9.30812 45.1925 9.39714 44.8951C9.48851 44.5818 9.62122 44.2822 9.79176 44.004C10.01 43.724 10.2482 43.4602 10.5046 43.2148C10.7988 42.9345 11.1258 42.6908 11.4785 42.4892C11.8462 42.2616 12.2314 42.0637 12.6305 41.8972C13.0716 41.7151 13.5273 41.5703 13.9926 41.4644C14.4681 41.3464 14.9507 41.2593 15.4374 41.2034C15.9659 41.1443 16.497 41.1125 17.0287 41.108H18.0662H18.1043H18.8745V41.1398H19.0082L19.2437 41.1907C19.32 41.1907 19.4092 41.1907 19.511 41.2353L19.8165 41.2862C19.9213 41.2948 20.0254 41.3097 20.1284 41.3307C20.1772 41.3534 20.2285 41.3705 20.2811 41.3817C20.3319 41.3878 20.3832 41.3878 20.4339 41.3817C20.483 41.4023 20.5342 41.4173 20.5867 41.4262L20.7776 41.4771C20.8304 41.4705 20.8839 41.4705 20.9367 41.4771C20.9894 41.4883 21.0406 41.5054 21.0895 41.528L21.395 41.579C21.4997 41.588 21.6038 41.6029 21.7069 41.6235L22.4834 37.6009L22.127 37.5436L21.6878 37.5372Z" fill="#3169B2"/>
<path d="M43.9396 43.7939V43.4629C43.9397 43.0105 43.8863 42.5597 43.7804 42.1199C43.6797 41.6991 43.5212 41.2943 43.3094 40.917C43.0966 40.525 42.838 40.1597 42.5393 39.8286C42.2081 39.4657 41.8316 39.147 41.4191 38.8802C41.0074 38.5704 40.5609 38.3098 40.0888 38.1037C39.5725 37.8717 39.0382 37.6823 38.4912 37.5372C37.8921 37.3769 37.2813 37.2641 36.6645 37.1998C35.1817 37.0436 33.6855 37.0692 32.209 37.2762C31.4694 37.3898 30.7381 37.5514 30.0195 37.76C29.3221 37.9606 28.6446 38.2248 27.9954 38.5492C27.3596 38.8575 26.7488 39.215 26.1687 39.6185C25.6386 40.0182 25.1407 40.4587 24.6793 40.9361C24.2626 41.3598 23.9012 41.8346 23.6036 42.3491C23.3254 42.8349 23.1114 43.3548 22.9671 43.8957C22.8247 44.4443 22.7563 45.0094 22.7635 45.5761C22.7628 46.1126 22.8291 46.6472 22.9608 47.1673C23.0988 47.6611 23.2932 48.1373 23.54 48.5867C23.7988 49.046 24.1107 49.4732 24.4693 49.8597C24.8609 50.2638 25.3038 50.6147 25.7868 50.9035C26.2791 51.2499 26.8059 51.5442 27.3589 51.7819C27.9655 52.0416 28.5911 52.2544 29.2302 52.4184C29.8667 52.5457 30.5605 52.6475 31.3052 52.7239C32.1094 52.795 32.9166 52.8248 33.7239 52.813C34.0039 52.813 34.284 52.813 34.564 52.813L35.4551 52.7557L36.3589 52.6602C36.6772 52.6284 36.9954 52.5902 37.3328 52.5393C37.6701 52.4884 37.9693 52.482 38.2939 52.4311C38.6185 52.3802 38.9304 52.3293 39.2932 52.2592C39.4459 52.2147 39.605 52.1765 39.7769 52.1383C39.9488 52.1001 40.1142 52.0619 40.2925 52.0174L40.8144 51.8837C40.9799 51.8328 41.139 51.7755 41.2917 51.7119L42.4311 47.9757C41.9919 48.1157 41.5654 48.2366 41.1581 48.3385C40.7507 48.4403 40.3306 48.5549 39.9424 48.6631L38.8158 48.9113C38.4721 48.9877 38.1348 49.0704 37.7974 49.1341C37.4601 49.1977 37.1609 49.2614 36.8618 49.3059L35.9961 49.4523L35.1496 49.5223C34.8695 49.5223 34.5959 49.5605 34.3413 49.5605C34.0867 49.5605 33.6666 49.5605 33.3229 49.516C33.0057 49.4908 32.6908 49.4419 32.3809 49.3696C32.0852 49.3084 31.7955 49.2211 31.5152 49.1086C31.2488 49.0031 30.9948 48.8686 30.7578 48.7076C30.5264 48.5684 30.3127 48.4017 30.1213 48.2112C29.9437 48.0422 29.7876 47.8519 29.6567 47.6447C29.4214 47.1904 29.2991 46.686 29.3002 46.1744V45.9707L29.3384 45.9007V45.6015L43.6404 45.5061V45.5761C43.6656 45.4884 43.6847 45.3991 43.6977 45.3088C43.7107 45.2184 43.7298 45.1291 43.755 45.0414C43.7477 44.9801 43.7477 44.9182 43.755 44.8568C43.7691 44.7939 43.7883 44.7322 43.8123 44.6723C43.8075 44.6427 43.8075 44.6127 43.8123 44.5832C43.8174 44.5558 43.8174 44.5277 43.8123 44.5004V44.3667C43.8091 44.3222 43.8091 44.2776 43.8123 44.2331V44.1694L43.8505 44.0994V43.9021L43.8886 43.8512L43.9396 43.7939ZM37.5746 42.8964V42.9346L29.994 42.9792L29.9622 43.0492V42.9792H29.994C30.1086 42.7628 30.2232 42.5591 30.3441 42.3745C30.4674 42.1719 30.608 41.9802 30.7642 41.8017C30.893 41.6174 31.0473 41.4524 31.2224 41.3116C31.3929 41.1718 31.5715 41.0422 31.7571 40.9233C31.9334 40.8107 32.1186 40.7128 32.3108 40.6305C32.5082 40.5542 32.7182 40.4778 32.9473 40.4141C33.029 40.3906 33.1119 40.3715 33.1956 40.3568C33.2801 40.3503 33.3635 40.3332 33.4438 40.3059L33.9275 40.255C34.093 40.255 34.2649 40.255 34.4495 40.255C34.6858 40.2496 34.9222 40.2645 35.156 40.2996C35.3572 40.3274 35.5569 40.3657 35.7543 40.4141C35.9456 40.4522 36.1331 40.5076 36.3144 40.5796C36.4757 40.6426 36.6261 40.7306 36.7599 40.8406C36.9046 40.9239 37.0338 41.0316 37.1418 41.1588C37.2411 41.2721 37.3207 41.4012 37.3773 41.5407C37.4538 41.6746 37.5177 41.8152 37.5683 41.9608C37.6208 42.1166 37.6467 42.2801 37.6447 42.4445V42.8519L37.5746 42.8964Z" fill="#3169B2"/>
<path d="M28.5683 43.0493L28.6065 42.9792H28.5683V43.0493Z" fill="#2475BC"/>
<path d="M150.355 59.8143L147.656 58.9551C148.515 59.267 149.425 59.547 150.355 59.8143Z" fill="#05A0B6"/>
<path d="M163.46 30.5356C158.518 30.5043 153.6 31.2299 148.878 32.687L133.017 37.6962H144.397C144.824 36.1941 146.943 35.0675 149.489 35.0866C152.334 35.0866 154.581 36.5569 154.581 38.3136C154.581 39.3829 153.709 40.3122 152.404 40.8595C151.453 41.2547 150.43 41.4497 149.4 41.4324C146.905 41.4324 144.836 40.2867 144.391 38.8228H133.131C124.532 39.2365 117.855 42.2726 117.855 45.9578C117.855 49.9296 125.595 53.1438 135.142 53.1438H144.473C144.919 51.6545 147.019 50.5406 149.565 50.5979C150.543 50.5972 151.512 50.7874 152.417 51.158C153.785 51.7372 154.683 52.7174 154.67 53.8249C154.67 55.5816 152.334 57.0073 149.489 56.9564C146.994 56.9564 144.925 55.8107 144.48 54.3468H133.017L147.656 58.9677L150.355 59.8143H150.469C154.705 60.9511 159.074 61.5162 163.46 61.4946C179.296 61.4946 192.14 54.5569 192.14 46.0024C192.14 37.4479 179.296 30.5356 163.46 30.5356ZM163.613 49.1594C161.111 49.1594 159.043 48.0137 158.597 46.5498H140.578C140.158 48.0519 138.032 49.1849 135.486 49.1594H135.365C132.584 49.0958 130.362 47.67 130.382 45.9388C130.401 44.2075 132.641 42.8327 135.41 42.8072H135.563C138.064 42.8072 140.133 43.9529 140.578 45.4168H158.597C159.017 43.9147 161.143 42.7881 163.689 42.8072C166.534 42.8072 168.813 44.2775 168.781 46.0342C168.749 47.7909 166.452 49.1849 163.613 49.1594Z" fill="#3169B2"/>
<path d="M60.5647 42.7692C60.2354 42.2554 59.7677 41.845 59.2154 41.5853C58.5063 41.3367 57.7474 41.2648 57.0043 41.3757C56.2612 41.4866 55.5564 41.777 54.9509 42.2218C54.4531 42.5686 54.0092 42.9868 53.6333 43.463L51.1828 52.4375H44.6842L48.5414 37.3718H55.04L54.4926 39.5867L54.5626 39.6504L54.9381 39.3576C55.6498 38.8135 56.413 38.3402 57.2168 37.9446C57.5923 37.7791 57.9551 37.6136 58.3434 37.4863C59.6192 37.1397 60.9627 37.1266 62.2451 37.4481C62.8605 37.5669 63.4439 37.8141 63.9572 38.1737C63.4098 38.9057 60.5647 42.7692 60.5647 42.7692Z" fill="#3169B2"/>
<path d="M105.647 34.2019H83.3702L82.5046 37.3844H75.3122L76.1842 34.2019H73.4219L68.7309 37.5371L68.3554 37.6835H64.7719L63.8999 40.1913H67.1652L65.2557 46.5944C63.3908 52.4883 67.127 52.7175 73.1482 52.7111H74.6376C73.3646 52.1764 71.6206 51.1581 72.2571 48.402L74.6503 39.8094H81.8363L79.2903 49.6496C78.4756 52.4883 82.4728 52.4883 82.4728 52.4883L85.9162 39.8349H93.465C93.3186 40.3122 93.1849 40.8023 93.0195 41.2733C93.656 40.9742 94.2924 40.6814 94.9862 40.4459C98.1687 39.3448 102.293 38.5364 105.577 39.6439C106.607 39.9391 107.479 40.6288 108.004 41.5632C108.528 42.4975 108.663 43.601 108.378 44.634C108.263 45.1623 106.532 52.5138 106.532 52.5138L111.802 48.8221C111.802 48.8221 113.712 40.7005 113.839 40.0895C114.896 34.7238 110.332 34.2019 105.647 34.2019Z" fill="#3169B2"/>
<path d="M100.746 45.0288C100.874 44.1822 100.906 43.2911 100.199 42.7692C99.7051 42.4937 99.1393 42.3739 98.576 42.4255C97.3858 42.428 96.209 42.6773 95.1199 43.1575C94.0633 43.5967 93.0597 44.154 92.1284 44.8187L90.0534 52.5139H98.8624C98.8624 52.5139 100.702 45.3534 100.746 45.0288Z" fill="#3169B2"/>
<path d="M3.85965 56.9883V58.7068H5.67365V56.9883H6.45654V61.2719H5.67365V59.3624H3.85965V61.2719H3.07677V56.9883H3.85965Z" fill="#010101"/>
<path d="M9.26347 61.2719L9.21255 60.9346C9.09736 61.072 8.95155 61.1804 8.78683 61.2511C8.62212 61.3219 8.4431 61.353 8.26417 61.342C8.14223 61.3479 8.02032 61.3295 7.9056 61.2877C7.79088 61.2459 7.68567 61.1816 7.59614 61.0986C7.50661 61.0156 7.43457 60.9155 7.38424 60.8043C7.33391 60.6931 7.30632 60.5729 7.30307 60.4509C7.30307 59.668 7.99685 59.2733 9.14253 59.2797V59.1779C9.14253 58.9742 9.05979 58.6369 8.50604 58.6369C8.21263 58.6374 7.92471 58.7165 7.67224 58.866L7.51948 58.3568C7.8625 58.1691 8.24878 58.0747 8.6397 58.0831C8.8113 58.0651 8.98474 58.0857 9.14738 58.1433C9.31001 58.2009 9.45772 58.2941 9.57972 58.4161C9.70172 58.5381 9.79493 58.6858 9.85254 58.8484C9.91014 59.0111 9.93069 59.1845 9.91269 59.3561V60.4763C9.90885 60.7232 9.92374 60.97 9.95724 61.2147L9.26347 61.2719ZM9.16163 59.7634C8.60788 59.7634 8.07959 59.8717 8.07959 60.3427C8.07479 60.4024 8.08302 60.4624 8.10371 60.5187C8.1244 60.5749 8.15706 60.626 8.19944 60.6684C8.24181 60.7107 8.29288 60.7434 8.34911 60.7641C8.40535 60.7848 8.46541 60.793 8.52513 60.7882C8.66314 60.7959 8.7999 60.7584 8.91473 60.6815C9.02956 60.6045 9.11623 60.4923 9.16163 60.3618C9.17047 60.3048 9.17047 60.2468 9.16163 60.1899V59.7634Z" fill="#010101"/>
<path d="M10.9565 59.1015C10.9565 58.7451 10.9565 58.4651 10.9565 58.1786H11.644L11.6821 58.6433C11.7835 58.4753 11.9277 58.3373 12.0999 58.2434C12.2722 58.1494 12.4662 58.1029 12.6623 58.1086C13.2034 58.1086 13.7635 58.4587 13.7635 59.4389V61.272H12.9742V59.528C12.9742 59.0825 12.8087 58.7451 12.3823 58.7451C12.2403 58.7395 12.1004 58.7815 11.9851 58.8646C11.8697 58.9476 11.7855 59.0669 11.7458 59.2034C11.7353 59.2879 11.7353 59.3734 11.7458 59.458V61.272H10.9565V59.1015Z" fill="#010101"/>
<path d="M17.6461 56.7593V60.4064C17.6461 60.7246 17.6461 61.0429 17.6461 61.272H16.9459L16.9141 60.7883C16.812 60.9642 16.6638 61.1088 16.4854 61.2064C16.307 61.304 16.1053 61.3509 15.9021 61.342C15.7138 61.3247 15.5309 61.2697 15.3642 61.1804C15.1975 61.0911 15.0505 60.9692 14.9318 60.822C14.8131 60.6748 14.7251 60.5053 14.6731 60.3234C14.6211 60.1416 14.6062 59.9512 14.6291 59.7635C14.6044 59.5625 14.6213 59.3585 14.6787 59.1643C14.7362 58.97 14.833 58.7897 14.9632 58.6345C15.0933 58.4793 15.254 58.3525 15.4352 58.262C15.6165 58.1716 15.8144 58.1193 16.0167 58.1086C16.1837 58.0969 16.351 58.1282 16.5025 58.1995C16.6541 58.2708 16.7848 58.3798 16.8823 58.516V56.7593H17.6461ZM16.8632 59.4707C16.8695 59.403 16.8695 59.3348 16.8632 59.2671C16.8336 59.1114 16.7506 58.971 16.6287 58.8699C16.5067 58.7689 16.3533 58.7135 16.1949 58.7133C15.692 58.7133 15.412 59.1589 15.412 59.7381C15.412 60.3173 15.692 60.7183 16.1885 60.7183C16.3411 60.7098 16.4864 60.6508 16.6017 60.5505C16.717 60.4502 16.7955 60.3144 16.825 60.1645C16.8351 60.0885 16.8351 60.0114 16.825 59.9354L16.8632 59.4707Z" fill="#010101"/>
<path d="M18.6899 56.7593H19.4792V61.272H18.6899V56.7593Z" fill="#010101"/>
<path d="M21.3568 57.3129C21.3579 57.3706 21.3469 57.4278 21.3245 57.4809C21.3022 57.5341 21.2689 57.582 21.227 57.6215C21.185 57.6611 21.1353 57.6914 21.0809 57.7106C21.0265 57.7298 20.9688 57.7374 20.9113 57.733C20.8551 57.7357 20.799 57.7267 20.7465 57.7066C20.694 57.6865 20.6462 57.6558 20.6061 57.6163C20.566 57.5768 20.5346 57.5295 20.5137 57.4773C20.4928 57.4251 20.483 57.3691 20.4848 57.3129C20.4977 57.2064 20.5492 57.1082 20.6295 57.037C20.7099 56.9658 20.8135 56.9265 20.9208 56.9265C21.0282 56.9265 21.1318 56.9658 21.2121 57.037C21.2924 57.1082 21.3439 57.2064 21.3568 57.3129ZM20.5294 61.2719V58.1785H21.3123V61.2719H20.5294Z" fill="#010101"/>
<path d="M22.3561 59.1015C22.3561 58.7451 22.3561 58.465 22.3561 58.1786H23.0435L23.0817 58.6432C23.1846 58.4752 23.33 58.3374 23.5032 58.2435C23.6764 58.1496 23.8713 58.1031 24.0683 58.1086C24.6093 58.1086 25.1694 58.4587 25.1694 59.4389V61.272H24.3802V59.528C24.3802 59.0824 24.2147 58.7451 23.7882 58.7451C23.6462 58.7394 23.5064 58.7815 23.391 58.8645C23.2757 58.9476 23.1914 59.0669 23.1517 59.2034C23.1381 59.2877 23.1381 59.3736 23.1517 59.458V61.272H22.3561V59.1015Z" fill="#010101"/>
<path d="M29.0265 58.1786C29.0265 58.3886 29.0265 58.6432 29.0265 59.0697V60.8264C29.0748 61.0603 29.0662 61.3024 29.0013 61.5323C28.9364 61.7621 28.8171 61.973 28.6536 62.1471C28.4901 62.3212 28.2872 62.4534 28.0618 62.5327C27.8365 62.6119 27.5954 62.6357 27.3589 62.6022C26.983 62.6135 26.6104 62.528 26.2769 62.354L26.4488 61.762C26.7253 61.9157 27.0362 61.9967 27.3526 61.9975C27.473 62.0067 27.594 61.9892 27.707 61.9462C27.8199 61.9033 27.9219 61.8359 28.0058 61.749C28.0897 61.6621 28.1534 61.5577 28.1923 61.4433C28.2312 61.329 28.2444 61.2074 28.2309 61.0873V60.82C28.1316 60.9669 27.9965 61.086 27.8384 61.1662C27.6802 61.2464 27.5043 61.2849 27.3271 61.2783C27.139 61.2714 26.9543 61.226 26.7845 61.1449C26.6147 61.0638 26.4633 60.9486 26.3398 60.8066C26.2163 60.6646 26.1232 60.4987 26.0664 60.3193C26.0096 60.1399 25.9903 59.9507 26.0096 59.7634C25.9886 59.5625 26.0088 59.3594 26.0691 59.1666C26.1294 58.9738 26.2284 58.7953 26.3601 58.6422C26.4918 58.489 26.6534 58.3644 26.835 58.2759C27.0167 58.1874 27.2144 58.137 27.4162 58.1277C27.5959 58.1175 27.7749 58.1573 27.9333 58.2427C28.0917 58.3281 28.2234 58.4557 28.3137 58.6114V58.1977L29.0265 58.1786ZM28.2182 59.4516C28.228 59.3819 28.228 59.3112 28.2182 59.2415C28.1871 59.0968 28.1066 58.9674 27.9904 58.8756C27.8743 58.7838 27.7297 58.7354 27.5817 58.7387C27.1425 58.7387 26.8179 59.1206 26.8179 59.7507C26.8179 60.279 27.0852 60.7055 27.5753 60.7055C27.7178 60.705 27.8564 60.6591 27.9709 60.5744C28.0854 60.4896 28.1698 60.3705 28.2118 60.2344C28.2322 60.1425 28.2429 60.0486 28.2437 59.9544L28.2182 59.4516Z" fill="#010101"/>
<path d="M34.6659 61.1447C34.3141 61.285 33.9368 61.3501 33.5584 61.3357C33.2671 61.3614 32.9738 61.3234 32.6986 61.2245C32.4235 61.1256 32.1731 60.9681 31.9649 60.7629C31.7566 60.5577 31.5954 60.3097 31.4925 60.036C31.3896 59.7623 31.3474 59.4695 31.3688 59.178C31.353 58.874 31.4016 58.5702 31.5115 58.2864C31.6213 58.0025 31.79 57.7452 32.0064 57.5312C32.2228 57.3172 32.4821 57.1514 32.7671 57.0447C33.0521 56.938 33.3565 56.8928 33.6602 56.912C34.0179 56.8991 34.3741 56.9643 34.7041 57.103L34.5322 57.7395C34.2769 57.6287 34.0021 57.5703 33.7239 57.5676C33.5112 57.5495 33.2971 57.5794 33.0975 57.6551C32.8979 57.7308 32.7179 57.8503 32.5706 58.0049C32.4234 58.1594 32.3128 58.3451 32.2469 58.5481C32.181 58.7512 32.1615 58.9664 32.1899 59.178C32.169 59.3818 32.1929 59.5878 32.26 59.7815C32.327 59.9752 32.4356 60.1518 32.5781 60.2992C32.7206 60.4465 32.8935 60.5609 33.0848 60.6344C33.2761 60.7079 33.4812 60.7387 33.6857 60.7246C33.9777 60.729 34.2677 60.6749 34.5386 60.5655L34.6659 61.1447Z" fill="#010101"/>
<path d="M38.3448 59.6998C38.3612 59.9153 38.3317 60.1318 38.2583 60.3351C38.1848 60.5384 38.0691 60.7237 37.9187 60.8789C37.7683 61.0341 37.5866 61.1557 37.3858 61.2355C37.185 61.3153 36.9695 61.3516 36.7536 61.342C36.5441 61.3504 36.3351 61.3148 36.1403 61.2373C35.9455 61.1598 35.7692 61.0422 35.6227 60.8922C35.4763 60.7421 35.363 60.563 35.2903 60.3663C35.2175 60.1697 35.187 59.96 35.2005 59.7507C35.1839 59.5341 35.2137 59.3164 35.2879 59.1123C35.3621 58.9081 35.479 58.7221 35.6308 58.5666C35.7826 58.4112 35.9659 58.29 36.1682 58.211C36.3706 58.132 36.5875 58.0971 36.8045 58.1086C37.0132 58.1009 37.2212 58.1373 37.4149 58.2152C37.6087 58.2932 37.7838 58.411 37.9291 58.5611C38.0743 58.7111 38.1864 58.8901 38.258 59.0862C38.3296 59.2824 38.3592 59.4915 38.3448 59.6998ZM36.0089 59.6998C36.0089 60.2981 36.3016 60.75 36.779 60.75C37.2564 60.75 37.5428 60.3427 37.5428 59.7189C37.5428 59.2352 37.3264 58.6814 36.7917 58.6814C36.2571 58.6814 36.0089 59.2161 36.0089 59.7316V59.6998Z" fill="#010101"/>
<path d="M39.185 59.1015C39.185 58.7451 39.185 58.4651 39.185 58.1786H39.8342V58.6369C39.9312 58.4712 40.0711 58.3348 40.2391 58.2418C40.4071 58.1489 40.597 58.1029 40.7889 58.1086C40.9739 58.1031 41.156 58.1552 41.31 58.2579C41.464 58.3605 41.5822 58.5086 41.6482 58.6815C41.7432 58.5238 41.874 58.3908 42.0301 58.2932C42.2164 58.1637 42.4399 58.0989 42.6666 58.1086C43.1821 58.1086 43.704 58.4587 43.704 59.4516V61.272H42.9403V59.5662C42.9403 59.0506 42.762 58.7451 42.3865 58.7451C42.2638 58.7496 42.1455 58.7917 42.0476 58.8657C41.9497 58.9397 41.8769 59.042 41.8391 59.1588C41.8162 59.244 41.8033 59.3316 41.8009 59.4198V61.272H41.0371V59.4834C41.0371 59.0506 40.8653 58.7451 40.5025 58.7451C40.3752 58.7547 40.2538 58.8022 40.1539 58.8817C40.054 58.9611 39.9803 59.0688 39.9424 59.1907C39.9111 59.2718 39.896 59.3583 39.8978 59.4453V61.272H39.134L39.185 59.1015Z" fill="#010101"/>
<path d="M44.7797 59.2097C44.7797 58.8024 44.7797 58.4714 44.7797 58.1786H45.4671L45.5053 58.656C45.6199 58.4804 45.7781 58.3377 45.9644 58.2417C46.1508 58.1458 46.3588 58.0999 46.5683 58.1086C46.7569 58.1251 46.9403 58.1795 47.1074 58.2685C47.2745 58.3576 47.4219 58.4795 47.5408 58.6269C47.6596 58.7743 47.7475 58.9441 47.7991 59.1263C47.8508 59.3085 47.8651 59.4992 47.8412 59.6871C47.8669 59.8883 47.8507 60.0926 47.7936 60.2873C47.7365 60.4819 47.6398 60.6626 47.5095 60.818C47.3791 60.9735 47.2181 61.1003 47.0364 61.1904C46.8547 61.2806 46.6563 61.3322 46.4537 61.342C46.286 61.3518 46.1184 61.3197 45.9662 61.2486C45.8139 61.1775 45.6818 61.0696 45.5817 60.9346V62.5322H44.7797V59.2097ZM45.5626 59.9799C45.5529 60.0517 45.5529 60.1245 45.5626 60.1963C45.5985 60.3517 45.686 60.4905 45.8109 60.5898C45.9357 60.6892 46.0905 60.7434 46.25 60.7437C46.7465 60.7437 47.0393 60.3299 47.0393 59.7189C47.0393 59.1079 46.7719 58.726 46.2691 58.726C46.1042 58.7295 45.9454 58.7887 45.8183 58.8938C45.6912 58.9989 45.6034 59.1439 45.569 59.3052C45.5492 59.3691 45.5384 59.4356 45.5371 59.5025L45.5626 59.9799Z" fill="#010101"/>
<path d="M51.4756 60.349C51.4756 60.7182 51.4756 61.0237 51.4756 61.2719H50.8137L50.7755 60.8073C50.672 60.9763 50.5256 61.1148 50.3512 61.2087C50.1768 61.3026 49.9806 61.3486 49.7826 61.342C49.2161 61.342 48.7005 61.0046 48.7005 59.999V58.1786H49.4834V59.8653C49.4834 60.3809 49.6489 60.7118 50.0626 60.7118C50.1934 60.7118 50.321 60.6714 50.4281 60.5962C50.5351 60.5211 50.6164 60.4148 50.6609 60.2917C50.6897 60.2143 50.7047 60.1325 50.7055 60.0499V58.1786H51.4884L51.4756 60.349Z" fill="#010101"/>
<path d="M53.4169 57.2684V58.1532H54.1616V58.7387H53.4169V60.1326C53.4169 60.5082 53.5188 60.7055 53.8179 60.7055C53.921 60.7064 54.0237 60.6936 54.1234 60.6673V61.2592C53.9402 61.3161 53.7487 61.342 53.5569 61.3356C53.4339 61.3424 53.3108 61.3233 53.1957 61.2794C53.0806 61.2356 52.9759 61.168 52.8886 61.081C52.7014 60.8359 52.6149 60.5285 52.6468 60.2218V58.7642H52.2012V58.1786H52.6468V57.4785L53.4169 57.2684Z" fill="#010101"/>
<path d="M55.4728 59.9481C55.477 60.0655 55.5058 60.1808 55.5574 60.2864C55.6089 60.392 55.6821 60.4856 55.772 60.5612C55.862 60.6367 55.9668 60.6926 56.0797 60.7251C56.1927 60.7577 56.3111 60.7662 56.4275 60.7501C56.7159 60.7562 57.003 60.7087 57.2741 60.6101L57.3886 61.1447C57.0442 61.2793 56.6764 61.3443 56.3066 61.3357C56.0966 61.3526 55.8855 61.3241 55.6876 61.252C55.4896 61.1799 55.3096 61.066 55.1598 60.9179C55.0099 60.7699 54.8938 60.5913 54.8193 60.3942C54.7448 60.1972 54.7137 59.9864 54.7281 59.7763C54.7097 59.5655 54.735 59.3531 54.8026 59.1526C54.8702 58.9521 54.9785 58.7677 55.1208 58.6111C55.2631 58.4545 55.4362 58.329 55.6293 58.2425C55.8224 58.1561 56.0314 58.1105 56.2429 58.1086C56.4333 58.1091 56.6214 58.1498 56.7949 58.2282C56.9684 58.3065 57.1233 58.4207 57.2496 58.5631C57.3758 58.7056 57.4705 58.8732 57.5274 59.0548C57.5842 59.2365 57.602 59.4281 57.5796 59.6171C57.5892 59.7272 57.5892 59.838 57.5796 59.9481H55.4728ZM56.8349 59.4007C56.8529 59.3076 56.8499 59.2117 56.8261 59.1199C56.8023 59.0281 56.7583 58.9428 56.6973 58.8702C56.6363 58.7976 56.5598 58.7396 56.4735 58.7003C56.3872 58.661 56.2932 58.6416 56.1984 58.6433C56.0047 58.6546 55.8226 58.7392 55.6891 58.8798C55.5555 59.0205 55.4804 59.2067 55.4792 59.4007H56.8349Z" fill="#010101"/>
<path d="M58.4007 59.178C58.4007 58.7579 58.4007 58.4587 58.4007 58.1787H59.0562V58.7706C59.1149 58.5904 59.2277 58.4327 59.3791 58.3188C59.5306 58.205 59.7134 58.1405 59.9028 58.1341C59.9641 58.1272 60.026 58.1272 60.0874 58.1341V58.8724C60.0112 58.8644 59.9344 58.8644 59.8582 58.8724C59.6891 58.8677 59.5242 58.9254 59.3951 59.0346C59.2659 59.1438 59.1815 59.2969 59.1581 59.4644C59.1508 59.5448 59.1508 59.6258 59.1581 59.7062V61.3038H58.4007V59.178Z" fill="#010101"/>
<path d="M62.3978 60.4509C62.7153 60.6275 63.072 60.7216 63.4353 60.7246C63.9381 60.7246 64.2182 60.4891 64.2182 60.139C64.2182 59.7889 64.0018 59.6234 63.4544 59.4261C62.7479 59.1715 62.296 58.7896 62.296 58.1531C62.296 57.5167 62.8815 56.9184 63.8108 56.9184C64.1668 56.9085 64.52 56.9826 64.8419 57.1348L64.651 57.7713C64.3876 57.6346 64.0948 57.5647 63.7981 57.5676C63.3016 57.5676 63.0852 57.8349 63.0852 58.0831C63.0852 58.3314 63.3335 58.5669 63.9063 58.7896C64.651 59.0697 65.0138 59.4261 65.0138 60.0626C65.0138 60.6991 64.4919 61.3356 63.3844 61.3356C62.9844 61.3416 62.5883 61.2568 62.226 61.0874L62.3978 60.4509Z" fill="#010101"/>
<path d="M66.4777 59.9481C66.482 60.0655 66.5108 60.1808 66.5623 60.2864C66.6139 60.392 66.687 60.4856 66.777 60.5612C66.867 60.6367 66.9718 60.6926 67.0847 60.7251C67.1976 60.7577 67.3161 60.7662 67.4325 60.7501C67.7252 60.7578 68.0167 60.7103 68.2917 60.6101L68.4063 61.1447C68.0618 61.2793 67.694 61.3442 67.3243 61.3357C67.1131 61.3557 66.9 61.3294 66.7 61.2586C66.5 61.1877 66.3179 61.0741 66.1664 60.9256C66.0149 60.7771 65.8976 60.5973 65.8227 60.3988C65.7479 60.2003 65.7173 59.9878 65.733 59.7763C65.7146 59.566 65.7398 59.3542 65.807 59.1541C65.8742 58.954 65.982 58.77 66.1236 58.6134C66.2652 58.4569 66.4375 58.3313 66.6299 58.2444C66.8223 58.1576 67.0305 58.1113 67.2415 58.1086C67.4319 58.1091 67.62 58.1498 67.7935 58.2282C67.967 58.3065 68.1219 58.4207 68.2482 58.5631C68.3744 58.7056 68.4691 58.8732 68.5259 59.0548C68.5828 59.2365 68.6006 59.4281 68.5782 59.6171C68.5877 59.7272 68.5877 59.838 68.5782 59.9481H66.4777ZM67.8398 59.4007C67.8579 59.3076 67.8549 59.2117 67.8311 59.1199C67.8073 59.0281 67.7633 58.9428 67.7022 58.8702C67.6412 58.7976 67.5648 58.7396 67.4785 58.7003C67.3922 58.661 67.2982 58.6416 67.2033 58.6433C67.0097 58.6546 66.8276 58.7392 66.694 58.8798C66.5604 59.0205 66.4854 59.2067 66.4841 59.4007H67.8398Z" fill="#010101"/>
<path d="M71.6842 61.1828C71.4064 61.2902 71.1101 61.3421 70.8122 61.3356C70.6003 61.3524 70.3873 61.3235 70.1876 61.2508C69.9878 61.1781 69.806 61.0633 69.6545 60.9142C69.503 60.7651 69.3853 60.5852 69.3094 60.3867C69.2335 60.1881 69.2012 59.9756 69.2147 59.7634C69.2069 59.5385 69.2466 59.3146 69.3311 59.106C69.4156 58.8975 69.543 58.709 69.7051 58.553C69.8672 58.3969 70.0603 58.2767 70.2719 58.2001C70.4834 58.1235 70.7088 58.0923 70.9332 58.1085C71.1929 58.1065 71.4504 58.1563 71.6906 58.2549L71.5506 58.8405C71.3667 58.7575 71.1667 58.7162 70.965 58.7196C70.7129 58.7397 70.4777 58.854 70.3061 59.0398C70.1346 59.2256 70.0393 59.4692 70.0393 59.722C70.0393 59.9749 70.1346 60.2185 70.3061 60.4043C70.4777 60.5901 70.7129 60.7044 70.965 60.7245C71.1834 60.7304 71.4005 60.6891 71.6015 60.6036L71.6842 61.1828Z" fill="#010101"/>
<path d="M75.2422 60.349C75.2422 60.7182 75.2422 61.0237 75.2422 61.2719H74.5548L74.5166 60.8073C74.4132 60.9763 74.2668 61.1148 74.0923 61.2087C73.9179 61.3026 73.7217 61.3486 73.5237 61.342C72.9572 61.342 72.4417 61.0046 72.4417 59.999V58.1786H73.2245V59.8653C73.2245 60.3809 73.39 60.7118 73.8038 60.7118C73.9346 60.7118 74.0622 60.6714 74.1692 60.5962C74.2763 60.5211 74.3576 60.4148 74.4021 60.2917C74.4308 60.2143 74.4459 60.1325 74.4466 60.0499V58.1786H75.2295L75.2422 60.349Z" fill="#010101"/>
<path d="M76.2861 59.178C76.2861 58.7579 76.2861 58.4587 76.2861 58.1787H76.9671V58.7706C77.0258 58.5904 77.1386 58.4327 77.29 58.3188C77.4415 58.205 77.6243 58.1405 77.8137 58.1341C77.875 58.1272 77.9369 58.1272 77.9982 58.1341V58.8724C77.9221 58.8644 77.8453 58.8644 77.7691 58.8724C77.6 58.8677 77.4351 58.9254 77.3059 59.0346C77.1768 59.1438 77.0924 59.2969 77.069 59.4644C77.0617 59.5448 77.0617 59.6258 77.069 59.7062V61.3038H76.2861V59.178Z" fill="#010101"/>
<path d="M79.5895 57.313C79.592 57.4003 79.5684 57.4865 79.5217 57.5604C79.475 57.6342 79.4073 57.6925 79.3274 57.7277C79.2474 57.7629 79.1587 57.7734 79.0727 57.758C78.9867 57.7425 78.9072 57.7017 78.8445 57.6408C78.7818 57.5799 78.7387 57.5017 78.7207 57.4162C78.7027 57.3307 78.7106 57.2417 78.7435 57.1607C78.7763 57.0797 78.8325 57.0104 78.905 56.9615C78.9775 56.9127 79.0629 56.8866 79.1503 56.8865C79.2078 56.883 79.2654 56.8914 79.3195 56.9114C79.3735 56.9314 79.4228 56.9625 79.4642 57.0026C79.5055 57.0428 79.538 57.0911 79.5596 57.1446C79.5812 57.198 79.5913 57.2554 79.5895 57.313ZM78.7557 61.272V58.1786H79.5513V61.272H78.7557Z" fill="#010101"/>
<path d="M81.4608 57.2684V58.1532H82.2055V58.7387H81.4608V60.1326C81.4608 60.5082 81.5626 60.7055 81.8617 60.7055C81.9648 60.7064 82.0676 60.6936 82.1673 60.6673V61.2592C81.984 61.3161 81.7926 61.342 81.6008 61.3356C81.4769 61.3418 81.353 61.3223 81.237 61.2785C81.1209 61.2347 81.0151 61.1675 80.9261 61.081C80.7389 60.8359 80.6523 60.5285 80.6842 60.2218V58.7642H80.2387V58.1786H80.6842V57.4785L81.4608 57.2684Z" fill="#010101"/>
<path d="M83.5548 58.1786L84.1149 59.8398C84.1786 60.0308 84.2422 60.2663 84.2868 60.4763C84.3377 60.2981 84.395 60.069 84.4523 59.8398L84.936 58.185H85.7698L84.9933 60.2981C84.8055 61.0392 84.4358 61.7218 83.9176 62.284C83.6897 62.496 83.4039 62.6355 83.0966 62.685L82.9183 62.0485C83.0834 62.0061 83.239 61.9326 83.3766 61.8321C83.556 61.7053 83.7023 61.5372 83.8031 61.342C83.8308 61.3023 83.8483 61.2564 83.854 61.2083C83.8518 61.1545 83.8365 61.1021 83.8094 61.0555L82.6765 58.2104L83.5548 58.1786Z" fill="#010101"/>
<path d="M88.7804 56.9883V61.2719H87.9975V56.9883H88.7804Z" fill="#010101"/>
<path d="M89.8815 59.1015C89.8815 58.7451 89.8815 58.465 89.8815 58.1786H90.5689L90.6071 58.6432C90.71 58.4752 90.8554 58.3374 91.0287 58.2435C91.2019 58.1496 91.3968 58.1031 91.5937 58.1086C92.1347 58.1086 92.6948 58.4587 92.6948 59.4389V61.272H91.9119V59.528C91.9119 59.0824 91.7465 58.7451 91.32 58.7451C91.178 58.7394 91.0381 58.7815 90.9228 58.8645C90.8074 58.9476 90.7232 59.0669 90.6835 59.2034C90.6592 59.2859 90.6485 59.3719 90.6517 59.458V61.272H89.8624L89.8815 59.1015Z" fill="#010101"/>
<path d="M95.9983 61.1829C95.7183 61.291 95.4199 61.3429 95.1199 61.3357C94.9106 61.3478 94.7011 61.3153 94.5052 61.2405C94.3093 61.1657 94.1315 61.0502 93.9835 60.9016C93.8356 60.7531 93.7208 60.5748 93.6468 60.3786C93.5728 60.1824 93.5412 59.9728 93.5541 59.7635C93.5463 59.5381 93.5862 59.3135 93.671 59.1045C93.7559 58.8955 93.8839 58.7067 94.0467 58.5505C94.2095 58.3944 94.4034 58.2743 94.6157 58.1981C94.8281 58.122 95.0541 58.0915 95.279 58.1086C95.5387 58.1066 95.7962 58.1564 96.0364 58.255L95.8964 58.8406C95.7104 58.7571 95.5083 58.7158 95.3045 58.7197C95.0524 58.7398 94.8172 58.8541 94.6456 59.0399C94.474 59.2257 94.3788 59.4693 94.3788 59.7222C94.3788 59.975 94.474 60.2186 94.6456 60.4044C94.8172 60.5902 95.0524 60.7045 95.3045 60.7246C95.5228 60.7301 95.7398 60.6889 95.941 60.6037L95.9983 61.1829Z" fill="#010101"/>
<path d="M97.6149 57.3129C97.6175 57.4002 97.5939 57.4864 97.5472 57.5602C97.5005 57.6341 97.4328 57.6924 97.3528 57.7276C97.2728 57.7628 97.1841 57.7733 97.0981 57.7578C97.0121 57.7424 96.9327 57.7016 96.87 57.6407C96.8073 57.5798 96.7642 57.5016 96.7462 57.4161C96.7282 57.3306 96.7361 57.2416 96.7689 57.1606C96.8017 57.0796 96.858 57.0103 96.9305 56.9614C97.0029 56.9126 97.0883 56.8865 97.1757 56.8864C97.233 56.8838 97.2903 56.893 97.3439 56.9133C97.3975 56.9336 97.4464 56.9647 97.4875 57.0047C97.5287 57.0446 97.5612 57.0926 97.5831 57.1456C97.605 57.1986 97.6159 57.2555 97.6149 57.3129ZM96.7811 61.2719V58.1785H97.564V61.2719H96.7811Z" fill="#010101"/>
<path d="M101.466 56.7593V60.4064C101.466 60.7246 101.466 61.0429 101.466 61.272H100.766L100.734 60.7883C100.631 60.9637 100.483 61.1079 100.305 61.2054C100.126 61.303 99.9248 61.3502 99.7218 61.342C99.529 61.3312 99.3405 61.281 99.1679 61.1945C98.9953 61.1081 98.8423 60.9872 98.7182 60.8392C98.5942 60.6913 98.5018 60.5196 98.4467 60.3346C98.3915 60.1495 98.3749 59.9552 98.3978 59.7635C98.3731 59.5625 98.39 59.3585 98.4475 59.1643C98.505 58.97 98.6018 58.7897 98.7319 58.6345C98.8621 58.4793 99.0227 58.3525 99.204 58.262C99.3852 58.1716 99.5831 58.1193 99.7854 58.1086C99.9534 58.0964 100.122 58.1275 100.274 58.1988C100.427 58.2701 100.559 58.3793 100.657 58.516V56.7593H101.466ZM100.683 59.4707C100.689 59.403 100.689 59.3348 100.683 59.2671C100.652 59.1109 100.568 58.9704 100.445 58.8694C100.322 58.7684 100.167 58.7132 100.008 58.7133C99.5053 58.7133 99.2253 59.1589 99.2253 59.7381C99.2253 60.3173 99.5053 60.7183 100.002 60.7183C100.161 60.7183 100.315 60.6632 100.438 60.5622C100.561 60.4612 100.646 60.3207 100.676 60.1645C100.687 60.0885 100.687 60.0114 100.676 59.9354L100.683 59.4707Z" fill="#010101"/>
<path d="M103.057 59.9481C103.061 60.0655 103.09 60.1808 103.142 60.2864C103.193 60.392 103.266 60.4856 103.356 60.5612C103.446 60.6367 103.551 60.6926 103.664 60.7251C103.777 60.7577 103.895 60.7662 104.012 60.7501C104.304 60.7578 104.596 60.7103 104.871 60.6101L104.986 61.1447C104.641 61.2793 104.273 61.3442 103.903 61.3357C103.692 61.3556 103.479 61.3292 103.278 61.2584C103.078 61.1877 102.896 61.0741 102.744 60.9258C102.592 60.7774 102.474 60.5977 102.398 60.3992C102.323 60.2007 102.291 59.9881 102.306 59.7763C102.287 59.5655 102.313 59.3531 102.38 59.1526C102.448 58.9521 102.556 58.7677 102.699 58.6111C102.841 58.4545 103.014 58.329 103.207 58.2425C103.4 58.1561 103.609 58.1105 103.821 58.1086C104.011 58.1091 104.199 58.1498 104.373 58.2282C104.546 58.3065 104.701 58.4207 104.827 58.5631C104.954 58.7056 105.048 58.8732 105.105 59.0548C105.162 59.2365 105.18 59.4281 105.157 59.6171C105.167 59.7272 105.167 59.838 105.157 59.9481H103.057ZM104.419 59.4007C104.437 59.3076 104.434 59.2117 104.41 59.1199C104.386 59.0281 104.342 58.9428 104.281 58.8702C104.22 58.7976 104.144 58.7396 104.058 58.7003C103.971 58.661 103.877 58.6416 103.783 58.6433C103.589 58.6546 103.407 58.7392 103.273 58.8798C103.14 59.0205 103.065 59.2067 103.063 59.4007H104.419Z" fill="#010101"/>
<path d="M105.991 59.1015C105.991 58.7451 105.991 58.4651 105.991 58.1786H106.679L106.717 58.6433C106.818 58.4753 106.962 58.3373 107.135 58.2434C107.307 58.1494 107.501 58.1029 107.697 58.1086C108.238 58.1086 108.798 58.4587 108.798 59.4389V61.272H108.015V59.528C108.015 59.0825 107.85 58.7451 107.423 58.7451C107.281 58.7395 107.141 58.7815 107.026 58.8646C106.911 58.9476 106.826 59.0669 106.787 59.2034C106.776 59.2879 106.776 59.3734 106.787 59.458V61.272H106.004L105.991 59.1015Z" fill="#010101"/>
<path d="M110.695 57.2684V58.1532H111.44V58.7387H110.695V60.1326C110.695 60.5082 110.797 60.7055 111.096 60.7055C111.199 60.7064 111.302 60.6936 111.401 60.6673V61.2592C111.218 61.3161 111.027 61.342 110.835 61.3356C110.711 61.3418 110.587 61.3223 110.471 61.2785C110.355 61.2347 110.249 61.1675 110.16 61.081C109.973 60.8359 109.886 60.5285 109.918 60.2218V58.7642H109.466V58.1786H109.912V57.4785L110.695 57.2684Z" fill="#010101"/>
<path d="M112.191 60.5591C112.434 60.696 112.707 60.7724 112.986 60.7819C113.33 60.7819 113.483 60.6418 113.483 60.4382C113.483 60.2345 113.355 60.1199 112.973 59.9863C112.369 59.7762 112.114 59.4452 112.121 59.0824C112.128 58.9402 112.165 58.8011 112.229 58.6737C112.293 58.5464 112.382 58.4335 112.491 58.3421C112.6 58.2508 112.727 58.1829 112.864 58.1427C113.001 58.1025 113.144 58.0909 113.285 58.1086C113.57 58.1052 113.851 58.1684 114.106 58.2932L113.954 58.8469C113.759 58.7374 113.541 58.6762 113.317 58.6687C113.037 58.6687 112.884 58.8024 112.884 58.9933C112.884 59.1843 113.031 59.2861 113.425 59.4261C113.986 59.6298 114.246 59.9162 114.253 60.3745C114.253 60.9346 113.814 61.3356 112.98 61.3356C112.653 61.3416 112.329 61.2673 112.038 61.1192L112.191 60.5591Z" fill="#010101"/>
</g>
<defs>
<clipPath id="clip0_1_263">
<rect width="189.605" height="32.1429" fill="white" transform="translate(2.53575 30.5356)"/>
</clipPath>
</defs>
</svg>
