<svg width="91" height="90" viewBox="0 0 91 90" fill="none" xmlns="http://www.w3.org/2000/svg">
<g clip-path="url(#clip0_1_314)">
<mask id="mask0_1_314" style="mask-type:luminance" maskUnits="userSpaceOnUse" x="0" y="0" width="91" height="90">
<path d="M90.1087 0.338379H0.785255V89.6618H90.1087V0.338379Z" fill="white"/>
</mask>
<g mask="url(#mask0_1_314)">
<path d="M45.4537 89.662C20.7879 89.6636 0.779596 69.649 0.785257 44.9791C0.790917 20.3194 20.8173 0.324797 45.4956 0.338386C70.149 0.351973 90.131 20.3907 90.1089 45.0776C90.086 69.6762 70.0709 89.6604 45.4537 89.662Z" fill="#003398"/>
<path d="M55.3137 50.8614C55.3035 48.0182 55.2945 45.1761 55.2832 42.3328C55.2832 42.1607 55.3069 42.0508 55.5243 42.0577C57.141 42.1052 58.7644 41.9444 60.3755 42.1438C61.6265 42.2989 62.3465 43.0768 62.4247 44.2284C62.5186 45.6279 61.9549 46.4624 60.6506 46.8486C60.5295 46.8848 60.4083 46.9187 60.2363 46.9686C61.6355 47.9084 62.1937 49.4291 63.1718 50.8003C62.4292 50.8003 61.8008 50.8003 61.1737 50.8003C60.9302 50.8003 60.8861 50.5818 60.7853 50.438C60.1604 49.5469 59.5649 48.6354 58.9219 47.7567C58.5052 47.1871 57.7342 47.0082 57.0934 47.2596C57.1625 48.4394 57.2293 49.6193 57.0595 50.7969C56.4821 50.9532 55.8968 50.8592 55.3137 50.8592V50.8614Z" fill="#FEFEFE"/>
<path d="M34.4518 42.0758C35.3915 42.4642 36.1116 43.0689 36.4614 44.0608C36.5712 44.3733 36.5836 44.5681 36.1682 44.5601C36.0413 44.5579 35.9123 44.6156 35.7855 44.6496C35.2274 44.7957 34.8085 44.8648 34.4337 44.1684C34.0227 43.4074 33.1465 43.3214 32.3246 43.4686C31.3227 43.6475 30.6852 44.2601 30.4362 45.2452C30.2449 46.0038 30.2517 46.7738 30.4463 47.5348C30.8324 49.0476 32.1649 49.7801 33.6616 49.308C33.9979 49.2015 34.3432 49.1099 34.608 48.8528C34.6489 48.7656 34.7247 48.7282 34.8153 48.7124C34.9885 48.4349 34.8617 48.1304 34.8912 47.8394C34.9171 47.5744 34.7168 47.6027 34.548 47.6027C34.1145 47.6027 33.6809 47.588 33.2484 47.6073C32.9699 47.6197 32.8601 47.5552 32.851 47.2415C32.8204 46.1284 32.8058 46.1295 33.9061 46.1307C34.8255 46.1307 35.7459 46.1307 36.6923 46.1307C36.6923 47.1408 36.6991 48.1145 36.6889 49.0883C36.6855 49.3804 36.6923 49.6771 36.381 49.8764C34.6681 50.9725 32.8567 51.3586 30.9195 50.575C29.4478 49.9806 28.8093 48.7486 28.5375 47.2619C28.1832 45.3211 29.0085 43.3304 30.5697 42.4246C31.3634 41.9637 32.2385 41.8969 33.1284 41.9139C33.3163 41.9173 33.5031 41.9264 33.6911 41.9321C33.9718 41.8403 34.2118 41.9592 34.4518 42.0758Z" fill="#FEFEFE"/>
<path d="M42.7141 42.0704C43.2349 42.2301 43.758 42.3863 44.2085 42.7101C44.4678 42.7679 44.6263 42.9264 44.684 43.1857C45.8479 44.8876 45.9056 46.7401 45.2784 48.6118C44.7904 50.068 43.6425 50.7632 42.1209 50.7983C40.9729 50.8244 39.8238 50.7915 38.6769 50.8119C38.3328 50.8176 38.2796 50.6794 38.2807 50.3816C38.2898 47.7468 38.2932 45.1107 38.2773 42.4758C38.2751 42.1089 38.3973 42.0489 38.7279 42.0534C39.8759 42.0681 41.0239 42.0489 42.1707 42.0432C42.3541 42.0025 42.5386 41.9571 42.7141 42.0715V42.0704Z" fill="#FEFEFE"/>
<path d="M47.1431 46.3979C47.1431 45.081 47.1408 43.7642 47.1465 42.4461C47.1465 42.2865 47.0434 42.0487 47.3763 42.0589C48.8605 42.1041 50.3515 41.9468 51.829 42.1472C53.0075 42.3069 53.7762 43.2648 53.8158 44.5115C53.8634 46.0118 53.1773 47.0796 51.975 47.3706C51.1044 47.5824 50.2156 47.485 49.336 47.4883C48.9963 47.4883 48.8922 47.5585 48.9103 47.9243C48.9488 48.7317 48.9103 49.5424 48.9296 50.3509C48.9375 50.6758 48.873 50.8083 48.5039 50.814C47.1431 50.8344 47.1431 50.8491 47.1431 49.5017C47.1431 48.4667 47.1431 47.4317 47.1431 46.3968V46.3979Z" fill="#FEFEFE"/>
<path d="M74.3913 43.6101C74.8057 42.754 74.9744 41.8131 75.3072 40.9287C75.3853 40.7215 75.4555 40.5108 75.554 40.2312C75.7883 40.8925 75.9956 41.4745 76.2016 42.0576C76.3941 42.4256 76.4959 42.8287 76.6148 43.2216C76.6997 43.5014 76.8379 43.6021 77.1345 43.5953C77.9972 43.5749 78.861 43.584 79.7237 43.5919C79.9051 43.593 80.0993 43.5308 80.2691 43.6531C79.5312 44.4038 78.6085 44.9144 77.7696 45.5316C77.4514 45.766 77.3892 45.9325 77.5194 46.2993C77.8534 47.2368 78.1342 48.1937 78.4795 49.2807C77.5353 48.5945 76.7065 48.0159 75.9072 47.3999C75.6106 47.1712 75.4261 47.2074 75.1487 47.4271C74.4739 47.9638 73.7686 48.4632 73.069 48.967C72.9444 49.0565 72.8437 49.232 72.6523 49.1675C72.9739 48.1552 73.2739 47.1429 73.6237 46.1487C73.7234 45.8645 73.6441 45.7558 73.4358 45.6097C72.6671 45.073 71.9051 44.5249 71.15 43.969C71.0425 43.8897 70.8047 43.8818 70.8874 43.6394C72.0546 43.5376 73.2229 43.5953 74.3902 43.6112L74.3913 43.6101Z" fill="#FECD00"/>
<path d="M65.0048 69.9695C65.1893 70.1971 64.9199 70.2243 64.8372 70.2854C64.1263 70.8074 63.4107 71.3249 62.6805 71.8186C62.3602 72.0349 62.239 72.2308 62.3941 72.6407C62.7428 73.5635 63.0213 74.5135 63.3791 75.6108C62.4394 74.9291 61.6084 74.3527 60.8114 73.7334C60.5193 73.5069 60.3404 73.5035 60.0483 73.7334C59.266 74.3459 58.4509 74.9156 57.5157 75.6006C57.7557 74.8215 57.9425 74.1772 58.1531 73.542C58.6026 72.181 58.6105 72.1799 57.4818 71.3408C56.9847 70.9717 56.4719 70.6241 55.9771 70.2526C55.9081 70.2005 55.6035 70.1869 55.8537 69.9718C56.807 69.8868 57.7637 69.9311 58.718 69.9446C59.1075 69.9503 59.2875 69.8178 59.3996 69.4498C59.5524 68.9504 59.6747 68.4352 59.9283 67.9698C60.0891 67.5169 60.2509 67.064 60.4366 66.5409C60.731 67.4014 61.0016 68.1941 61.2721 68.9867C61.434 69.8348 61.9616 70.016 62.7677 69.9469C63.5059 69.8834 64.261 69.8801 65.007 69.9707L65.0048 69.9695Z" fill="#FECD00"/>
<path d="M29.1715 69.5503C29.4998 68.5754 29.8281 67.6017 30.1882 66.5327C30.5855 67.7262 30.9467 68.8087 31.3078 69.8912C32.2736 69.9852 33.2415 69.8991 34.2072 69.9353C34.4099 69.9432 34.617 69.8968 34.8152 69.9761C34.9216 70.1663 34.7427 70.1697 34.6499 70.2365C33.9038 70.7755 33.1714 71.3349 32.4083 71.8501C32.0958 72.0607 32.0086 72.234 32.1502 72.6087C32.44 73.3787 32.6618 74.1747 32.9121 74.9595C32.9562 75.0987 33.057 75.2301 32.9302 75.4565C32.3245 75.0218 31.7199 74.5982 31.1267 74.1578C30.2063 73.4749 30.2096 73.4704 29.2836 74.1238C28.6631 74.5609 28.0903 75.067 27.282 75.5063C27.6171 74.4691 27.8876 73.5611 28.208 72.6687C28.3394 72.3019 28.3462 72.0901 27.9669 71.8523C27.2672 71.4142 26.6106 70.9058 25.9506 70.4075C25.7978 70.292 25.5441 70.2467 25.5475 69.9761C26.5099 69.8776 27.4755 69.9398 28.439 69.9421C28.7764 69.9421 29.0175 69.8527 29.1692 69.5515L29.1715 69.5503Z" fill="#FECD00"/>
<path d="M23.8924 28.5954C22.956 29.2703 22.1568 29.8852 21.3145 30.4344C20.9499 30.6722 20.9284 30.8884 21.0586 31.2519C21.3417 32.0457 21.5839 32.8553 21.8534 33.6547C21.902 33.7996 21.9609 33.9343 21.9066 34.1337C21.0847 33.5256 20.2707 32.9357 19.4713 32.3276C19.22 32.1362 19.0434 32.0762 18.7513 32.3038C17.9701 32.9153 17.1516 33.4769 16.2855 34.1031C16.2685 33.6173 16.4678 33.2584 16.5776 32.8836C16.7395 32.3265 16.8923 31.7603 17.1177 31.2281C17.2898 30.8205 17.1505 30.6268 16.83 30.4094C16.0149 29.8535 15.219 29.2692 14.2839 28.6011C15.4556 28.6011 16.4622 28.5853 17.4686 28.6102C17.8241 28.6192 17.9985 28.5298 18.1037 28.1675C18.3901 27.1789 18.7241 26.204 19.0627 25.1487C19.3989 25.8722 19.5698 26.5935 19.7906 27.2956C20.1993 28.5954 20.1925 28.5977 21.5375 28.5966C22.2711 28.5966 23.0036 28.5966 23.8935 28.5966L23.8924 28.5954Z" fill="#FDCD01"/>
<path d="M20.2242 58.7968C20.4439 59.0199 20.7178 58.8817 20.9612 58.8874C21.8828 58.9089 22.8055 58.8965 23.8833 58.8965C23.2312 59.3664 22.6912 59.7638 22.1443 60.1499C21.3065 60.7417 21.051 61.5291 21.3779 62.512C21.5817 63.1291 21.7798 63.7473 22.0288 64.5162C21.0733 63.8141 20.2469 63.2185 19.4352 62.6025C19.194 62.4202 19.0377 62.3784 18.7638 62.5923C17.9724 63.2117 17.1414 63.7813 16.2176 64.4482C16.444 63.4416 16.7293 62.5946 17.052 61.7657C17.2625 61.2234 17.1855 60.9086 16.6648 60.5904C15.8858 60.1126 15.1703 59.5328 14.2884 58.8953C15.4432 58.8953 16.4452 58.9021 17.4471 58.8885C17.6124 58.8863 17.823 59.0188 17.9532 58.7934C17.9973 58.396 18.132 58.0291 18.3188 57.6781C18.5622 56.9601 18.8056 56.2423 19.0683 55.4712C19.5325 56.4529 19.6887 57.5105 20.1155 58.4684C20.2152 58.5568 20.2321 58.6723 20.2265 58.7957L20.2242 58.7968Z" fill="#FECD00"/>
<path d="M70.5602 58.2525C70.8772 57.342 71.1942 56.4317 71.5339 55.459C71.9278 56.6072 72.306 57.7078 72.6829 58.8096V58.8073C73.1663 59.0021 73.6713 58.8696 74.1649 58.89C74.8226 58.916 75.4827 58.8967 76.3114 58.8967C75.5472 59.455 74.9053 59.9385 74.2476 60.4005C73.3588 61.0244 73.3588 61.0165 73.6939 62.0593C73.9396 62.8214 74.1705 63.588 74.4491 64.4848C73.5173 63.8133 72.6739 63.2403 71.8746 62.613C71.578 62.3797 71.4195 62.4398 71.1614 62.6368C70.3542 63.2494 69.5254 63.8325 68.5993 64.504C68.9412 63.4374 69.2232 62.4738 69.5639 61.5317C69.6953 61.1693 69.6613 60.9859 69.3319 60.7628C68.4918 60.1967 67.6834 59.583 66.7369 58.8967C67.6449 58.8967 68.4363 58.9171 69.2265 58.8877C69.6194 58.873 70.0315 59.0247 70.4085 58.7948C70.4142 58.6023 70.4153 58.4076 70.559 58.2525H70.5602Z" fill="#FECD00"/>
<path d="M65.1146 17.6096C64.3232 18.1769 63.542 18.76 62.7371 19.3058C62.3952 19.5379 62.2944 19.7417 62.4586 20.1607C62.7653 20.9431 62.9828 21.7606 63.2454 22.5601C63.294 22.7073 63.3281 22.8477 63.2896 23.0254C62.4586 22.4129 61.6275 21.8184 60.8204 21.1934C60.5588 20.9907 60.3935 21.0077 60.1388 21.2013C59.318 21.8263 58.4745 22.4197 57.5337 23.1036C57.8723 22.0528 58.1531 21.1028 58.4904 20.1732C58.6342 19.7757 58.6059 19.5674 58.221 19.3182C57.39 18.7804 56.61 18.1667 55.6838 17.4941C56.8228 17.4941 57.836 17.4589 58.8459 17.5111C59.2659 17.5326 59.3893 17.3843 59.4957 17.0321C59.7889 16.0583 60.1173 15.0947 60.4762 13.9929C60.843 15.1264 61.1781 16.1093 61.4725 17.1046C61.5642 17.4171 61.6966 17.5144 62.0159 17.5077C63.0382 17.4873 64.0617 17.4998 65.084 17.4998C65.0942 17.536 65.1032 17.5722 65.1134 17.6096H65.1146Z" fill="#FECD00"/>
<path d="M14.1345 42.8684C14.4198 42.0294 14.7051 41.1903 15.0278 40.2415C15.3889 41.3477 15.7354 42.3464 16.0343 43.3587C16.1214 43.6543 16.2414 43.7425 16.5335 43.7391C17.5637 43.7245 18.594 43.7335 19.7873 43.7335C18.9959 44.3121 18.3211 44.8194 17.6328 45.3063C16.8584 45.8544 16.8539 45.8464 17.1369 46.7376C17.3464 47.3988 17.5501 48.0624 17.763 48.7236C17.8196 48.898 17.9056 49.0634 17.8309 49.2468C16.9954 48.6387 16.1497 48.0488 15.3356 47.4181C15.0844 47.2233 14.9394 47.2449 14.7074 47.4192C13.8843 48.0352 13.0454 48.6297 12.0785 49.3295C12.4487 48.1994 12.7578 47.2335 13.0838 46.2756C13.1801 45.9947 13.1756 45.8294 12.8835 45.6347C12.0174 45.0561 11.1875 44.4231 10.2479 43.7425C11.3471 43.7425 12.331 43.7493 13.3137 43.7357C13.5005 43.7335 13.7224 43.858 13.8798 43.6441C13.8877 43.361 13.9862 43.1073 14.1323 42.8695L14.1345 42.8684Z" fill="#FECD00"/>
<path d="M46.4638 13.3408C46.7479 13.5503 47.0729 13.4269 47.3752 13.4348C48.2209 13.4551 49.0688 13.4415 50.0516 13.4415C49.5149 13.8401 49.0665 14.1753 48.6149 14.5071C48.1326 14.8615 47.4193 15.1219 47.2291 15.5929C47.0378 16.0697 47.5325 16.7026 47.6877 17.279C47.8371 17.8316 48.0998 18.3536 48.1722 18.9843C47.3582 18.3875 46.5679 17.8463 45.8241 17.2484C45.4279 16.9302 45.1482 16.9586 44.7668 17.262C44.0195 17.8576 43.2327 18.4023 42.3813 19.0284C42.6983 18.0105 42.9859 17.0876 43.2735 16.1648C43.1738 15.927 43.4093 15.7152 43.3233 15.4786C42.4368 14.8264 41.5503 14.1742 40.554 13.4415C41.6375 13.4415 42.6145 13.4483 43.5904 13.4359C43.7829 13.4336 44.0048 13.5344 44.169 13.3396C44.1961 13.0271 44.2493 12.7214 44.4395 12.4587C44.7192 11.6627 44.9988 10.8667 45.3102 9.9812C45.6351 10.9324 45.9328 11.8043 46.2306 12.6773C46.371 12.8765 46.4333 13.103 46.4615 13.3408H46.4638Z" fill="#FECD00"/>
<path d="M44.2096 73.8465C44.5674 72.7719 44.9263 71.6962 45.3067 70.5548C45.6259 71.4947 45.9293 72.388 46.2328 73.2826C46.3777 73.4797 46.4252 73.7118 46.4773 73.9428C47.2336 74.1172 48.0011 73.9801 48.7631 74.0174C49.1514 74.0367 49.542 74.0208 50.1137 74.0208C49.1639 74.7037 48.3634 75.2981 47.5404 75.8598C47.2415 76.0636 47.1147 76.2289 47.2608 76.6162C47.571 77.4382 47.8099 78.2864 48.0906 79.1209C48.1393 79.2662 48.1925 79.3996 48.137 79.5583C47.3038 78.9512 46.4637 78.3577 45.6475 77.7337C45.3893 77.5368 45.2104 77.5447 44.9647 77.7337C44.3092 78.2354 43.6413 78.7211 42.9711 79.2038C42.8148 79.3159 42.6892 79.5078 42.4299 79.4762C42.7356 78.5072 43.0209 77.5469 43.3481 76.6003C43.4602 76.2764 43.416 76.0987 43.1307 75.9017C42.2963 75.3287 41.4823 74.7252 40.6275 74.1092C40.8177 73.9631 41.0238 74.0333 41.2106 74.0231C42.1967 73.9722 43.1884 74.116 44.1723 73.9451C44.153 73.8997 44.1644 73.8658 44.2119 73.8465H44.2096Z" fill="#FECD00"/>
<path d="M29.1727 16.9757C29.4874 16.037 29.801 15.0983 30.1395 14.0872C30.4837 14.7438 30.6331 15.4233 30.8414 16.0732C31.2988 17.5 31.2807 17.5056 32.7559 17.5045C33.4283 17.5045 34.1008 17.5045 34.8593 17.5045C34.3238 18.0333 33.7181 18.3571 33.1872 18.7738C32.8057 19.0739 32.2215 19.2822 32.0743 19.6638C31.943 20.0069 32.2905 20.5301 32.4173 20.9762C32.6098 21.6556 32.9121 22.3033 33.0332 23.0528C32.1559 22.4154 31.3147 21.8243 30.4984 21.2015C30.2403 21.0044 30.0671 21.0112 29.818 21.2026C29.1489 21.7167 28.4628 22.2093 27.7767 22.6996C27.6364 22.7992 27.5242 22.986 27.2741 22.9271C27.5899 21.9658 27.8888 21.0112 28.2205 20.0681C28.3394 19.7306 28.2771 19.5596 27.968 19.3536C27.128 18.7942 26.3231 18.1816 25.3845 17.5022C26.4261 17.5022 27.3431 17.5113 28.2601 17.4966C28.5126 17.492 28.7843 17.5916 29.0198 17.4105C29.0141 17.2451 29.0651 17.1003 29.1727 16.9746V16.9757Z" fill="#FECD00"/>
<path d="M70.8941 26.9243C71.1002 26.3377 71.3051 25.75 71.5338 25.1001C71.8564 26.0444 72.1598 26.9367 72.4644 27.829C72.6093 28.4019 72.9851 28.5356 73.5467 28.5061C74.4252 28.4608 75.3083 28.4823 76.1891 28.4993C76.2468 28.6374 76.1631 28.6816 76.0589 28.7552C75.2472 29.3315 74.4524 29.9328 73.6316 30.4956C73.3938 30.6586 73.3667 30.7843 73.455 31.0425C73.7663 31.9438 74.0448 32.8564 74.3437 33.7635C74.38 33.8745 74.4162 33.9752 74.3698 34.0998C73.5569 33.5042 72.7316 32.9312 71.9459 32.3073C71.6334 32.0593 71.433 32.0627 71.1296 32.2971C70.3281 32.9165 69.5016 33.5042 68.6004 34.1666C68.9355 33.1079 69.2163 32.1273 69.5639 31.1727C69.7042 30.7866 69.6091 30.5918 69.3023 30.3846C68.6027 29.9102 67.9121 29.4221 67.2328 28.9182C67.0856 28.8095 66.8207 28.7813 66.8377 28.5049C67.809 28.4767 68.7827 28.4778 69.7529 28.5038C70.1774 28.5151 70.4039 28.3974 70.5092 27.9728C70.5986 27.6139 70.6926 27.2469 70.8929 26.9243H70.8941Z" fill="#FECD00"/>
<path d="M70.8941 26.9244C70.7549 27.3852 70.6156 27.8461 70.4764 28.307C70.4322 28.4518 70.3926 28.5775 70.1877 28.5685C69.0714 28.5232 67.9528 28.6432 66.8377 28.5039C66.8422 28.2186 67.0539 28.3884 67.1468 28.3873C68.0457 28.3715 68.9457 28.3624 69.8446 28.3873C70.1673 28.3964 70.3212 28.2843 70.4051 27.9865C70.5171 27.5913 70.6575 27.2041 70.7877 26.8145C70.7911 26.8032 70.8103 26.7987 70.8228 26.7908C70.8465 26.8349 70.8703 26.8802 70.8941 26.9244Z" fill="#032599"/>
<path d="M38.2105 50.8807C38.0701 50.7698 38.0996 50.6124 38.0984 50.4652C38.0984 47.7601 38.0984 45.0549 38.0984 42.3498C38.0984 42.2966 38.1188 42.2434 38.2105 42.1924V50.8796L38.2082 50.8819L38.2105 50.8807Z" fill="#00229B"/>
<path d="M76.1892 28.499C75.0944 28.6485 73.9939 28.55 72.8969 28.5522C72.4565 28.5522 72.555 28.1049 72.4644 27.8287C72.5889 27.8071 72.6014 27.8049 72.6161 27.8807C72.6942 28.285 72.9365 28.3993 73.3384 28.388C74.2736 28.3609 75.211 28.3801 76.1472 28.3812C76.162 28.3812 76.1892 28.3937 76.1903 28.4039C76.1948 28.4345 76.1903 28.4673 76.1892 28.499Z" fill="#03249A"/>
<path d="M59.926 67.9685C59.7449 68.5539 59.5456 69.1336 59.3894 69.7247C59.3248 69.9682 59.1992 69.9942 58.9932 69.9919C57.9459 69.9794 56.8987 69.9761 55.8514 69.9704C56.6541 69.7417 57.4738 69.8696 58.2844 69.8809C59.1222 69.8923 59.121 69.9342 59.3894 69.137C59.532 68.7112 59.6758 68.2856 59.8207 67.8598C59.8241 67.8484 59.8433 67.8428 59.8558 67.8348L59.9271 67.9696L59.926 67.9685Z" fill="#032699"/>
<path d="M80.2691 43.6532C79.1802 43.6578 78.09 43.6612 77.0009 43.6657C76.8322 43.6657 76.6771 43.6883 76.6148 43.4528C76.4926 42.9841 76.2582 42.5481 76.2016 42.059C76.2038 42.0408 76.2004 42.017 76.2106 42.0046C76.2299 41.9808 76.257 41.9626 76.2808 41.9412C76.4077 42.3103 76.5582 42.6726 76.6533 43.0497C76.7461 43.4211 76.9239 43.5593 77.3224 43.5423C78.1296 43.5072 78.9391 43.5286 79.7472 43.5343C79.9264 43.5355 80.1301 43.4675 80.2691 43.6543V43.6532Z" fill="#042699"/>
<path d="M18.3177 57.6792C18.2464 58.0675 18.1241 58.439 17.952 58.7945H14.4753C14.4753 58.7571 14.4753 58.7198 14.4753 58.6824C15.3289 58.6824 16.1848 58.645 17.0351 58.6949C17.634 58.73 18.0064 58.5805 18.0913 57.9418C18.1095 57.8049 18.1932 57.6769 18.2475 57.5455C18.2623 57.5535 18.2861 57.5591 18.2906 57.5716C18.3041 57.6055 18.3098 57.6441 18.3189 57.6803L18.3177 57.6792Z" fill="#042699"/>
<path d="M65.0047 69.9694C63.9609 69.9762 62.916 69.9751 61.8721 69.9933C61.6275 69.9978 61.4985 69.9423 61.4611 69.6784C61.4272 69.4429 61.3355 69.2153 61.2698 68.9843C61.3128 68.7896 61.3389 68.8031 61.4102 68.9809C61.7498 69.8302 61.7589 69.7691 62.6839 69.8426C63.4582 69.9037 64.245 69.7124 65.0047 69.9694Z" fill="#03259A"/>
<path d="M44.4407 12.459C44.3864 12.7636 44.3275 13.0671 44.1701 13.3399C43.0165 13.3399 41.8616 13.3399 40.7081 13.3399C40.7081 13.3026 40.7081 13.2653 40.7081 13.2278C41.4734 13.2278 42.2398 13.2018 43.004 13.2358C43.6346 13.2641 44.2075 13.2743 44.3116 12.4545C44.3139 12.4409 44.3377 12.4171 44.3456 12.4193C44.3784 12.4273 44.409 12.4443 44.4407 12.4579V12.459Z" fill="#03249A"/>
<path d="M14.1345 42.8683C14.1107 43.1469 14.0099 43.3994 13.882 43.6428H10.412V43.5296C11.1638 43.5296 11.9166 43.5183 12.6683 43.533C13.2854 43.5454 13.9431 43.6598 14.0292 42.7551C14.0292 42.7472 14.0518 42.7404 14.0643 42.7324C14.0869 42.7777 14.1107 42.8219 14.1333 42.8672L14.1345 42.8683Z" fill="#062898"/>
<path d="M46.4638 13.3407C46.3144 13.1449 46.2555 12.9173 46.2328 12.6773C46.4106 12.3353 46.3789 12.7259 46.38 12.7327C46.4615 13.1438 46.7162 13.2479 47.1147 13.2366C48.0533 13.2094 48.993 13.2275 49.9349 13.3419H46.4638V13.3407Z" fill="#03259A"/>
<path d="M46.4774 73.9427C46.2996 73.7581 46.2623 73.5215 46.2328 73.2825C46.4094 72.9406 46.3789 73.3301 46.38 73.338C46.4615 73.7468 46.7128 73.8532 47.1125 73.8419C48.0612 73.8147 49.0122 73.8329 49.961 73.9438H46.4762L46.4774 73.9427Z" fill="#03259A"/>
<path d="M29.1715 69.5505C29.1783 69.8789 29.0333 70.0035 28.6926 69.9956C27.6454 69.9729 26.597 69.9797 25.5487 69.9752C26.3321 69.7328 27.1359 69.9117 27.9295 69.8665C28.3756 69.8404 28.8873 70.0295 29.099 69.4147C29.1137 69.4238 29.1375 69.4283 29.142 69.4418C29.1556 69.477 29.1613 69.5143 29.1703 69.5505H29.1715Z" fill="#01239A"/>
<path d="M70.5601 58.2522C70.5669 58.448 70.5069 58.6269 70.4096 58.7945H66.9361C66.9361 58.7572 66.9361 58.7198 66.9361 58.6824C67.809 58.6824 68.6831 58.67 69.5559 58.6881C69.9623 58.6971 70.3394 58.713 70.4673 58.2147C70.4673 58.2102 70.5035 58.2091 70.5183 58.2147C70.5341 58.2215 70.5454 58.2397 70.559 58.2522H70.5601Z" fill="#03259A"/>
<path d="M29.1727 16.9756C29.1851 17.1432 29.124 17.2848 29.0198 17.4116C27.8276 17.4116 26.6344 17.4116 25.4423 17.4116V17.2984C26.3955 17.2984 27.3476 17.2927 28.3009 17.3018C28.6508 17.3051 28.9972 17.338 29.0663 16.8647C29.0674 16.8556 29.09 16.8499 29.1024 16.842C29.1263 16.8862 29.1488 16.9315 29.1727 16.9756Z" fill="#062798"/>
<path d="M20.2242 58.7968C20.1212 58.7096 20.1064 58.593 20.1132 58.4696C20.1223 58.4333 20.1325 58.3971 20.1416 58.3608C20.4484 58.8353 20.9295 58.6677 21.3529 58.6768C22.1398 58.6927 22.9266 58.6813 23.7135 58.7968H20.2242Z" fill="#02249A"/>
<path d="M38.2116 50.8787H42.2477C42.2477 50.9172 42.2488 50.9545 42.25 50.9931C41.3228 50.9931 40.3944 51.0111 39.4683 50.9851C39.0494 50.9738 38.6124 51.121 38.2116 50.881L38.2139 50.8787H38.2116Z" fill="#01239B"/>
<path d="M34.8164 69.975C33.7443 69.9795 32.6733 69.9852 31.6011 69.9863C31.497 69.9863 31.3702 70.0305 31.3079 69.8912C31.6826 69.7474 32.0675 69.8867 32.4514 69.8538C33.1499 69.7938 33.8597 69.8583 34.5639 69.881C34.6488 69.8833 34.7314 69.9433 34.8153 69.9761L34.8164 69.975Z" fill="#00229B"/>
<path d="M44.2097 73.8467C44.1961 73.8795 44.1837 73.9124 44.1701 73.9452C42.9779 73.9452 41.7846 73.9452 40.5925 73.9452C40.5925 73.9079 40.5925 73.8705 40.5925 73.8331C41.5819 73.8331 42.5726 73.8127 43.5609 73.849C43.7783 73.8569 43.9991 73.6044 44.2097 73.8467Z" fill="#00229B"/>
<path d="M57.0051 50.847C57.1421 49.9355 57.0289 49.0183 57.0662 48.1045C57.0776 47.8237 57.0844 47.5429 57.0945 47.2632C57.1421 47.2858 57.2315 47.3096 57.2315 47.3323C57.2247 48.4555 57.2134 49.5777 57.1931 50.7009C57.1931 50.7632 57.1217 50.8243 57.0833 50.8854C57.0368 50.9161 57.0108 50.9025 57.0062 50.847H57.0051Z" fill="#00229B"/>
<path d="M36.4783 46.0017H33.048V45.9451H36.4999L36.4795 46.0017H36.4783Z" fill="#02299A"/>
<path d="M74.3913 43.61C73.224 43.7187 72.0557 43.661 70.8885 43.6384C71.2938 43.4062 71.733 43.5591 72.1553 43.5365C72.8493 43.4991 73.5444 43.5059 74.2395 43.4889C74.3347 43.4866 74.372 43.5297 74.3924 43.6089L74.3913 43.61Z" fill="#00229B"/>
<path d="M72.6818 58.8092C72.7565 58.7084 72.8618 58.6835 72.9795 58.6835C74.0471 58.6835 75.1148 58.6835 76.1835 58.8069C75.0162 58.8069 73.849 58.8069 72.6806 58.8069L72.6818 58.8092Z" fill="#00229B"/>
<path d="M57.0051 50.8467C57.0289 50.8636 57.0549 50.8773 57.0832 50.8852C56.4934 51.1003 55.8899 50.978 55.291 50.9543C55.2876 50.9543 55.2797 50.9214 55.2831 50.9078C55.2876 50.8909 55.3035 50.8773 55.3136 50.8614C55.8763 50.7686 56.4412 50.7878 57.0051 50.8467Z" fill="#00229B"/>
<path d="M63.0745 50.968H61.0706C61.0706 50.9511 61.0706 50.933 61.0706 50.916H63.0745C63.0745 50.933 63.0745 50.9511 63.0745 50.968Z" fill="#00229B"/>
<path d="M48.825 50.9692H47.2721C47.2721 50.951 47.2721 50.9329 47.2721 50.9148H48.8035C48.8114 50.9329 48.8182 50.951 48.8261 50.9692H48.825Z" fill="#00229B"/>
<path d="M32.7548 46.269V47.5957C32.7366 47.5957 32.7184 47.5957 32.7004 47.5957V46.2758C32.7184 46.2736 32.7366 46.2713 32.7548 46.269Z" fill="#00229B"/>
<path d="M34.8142 48.7115C34.779 48.8079 34.7032 48.8441 34.6069 48.8521C34.6533 48.511 34.7009 48.1689 34.7473 47.8279C34.77 47.8279 34.7915 47.8302 34.8142 47.8313V48.7115Z" fill="#07289D"/>
<path d="M43.3245 15.4788C43.5895 15.728 43.2984 15.9365 43.2746 16.1653C42.971 15.9127 43.2758 15.7053 43.3245 15.4788Z" fill="#04289A"/>
<path d="M34.4522 42.076C34.1985 42.0284 33.9448 41.9797 33.6911 41.9322C33.9743 41.7146 34.2302 41.8925 34.4907 41.9888C34.4964 41.9911 34.4953 42.0228 34.4884 42.0375C34.4817 42.0534 34.4647 42.0636 34.4522 42.0771V42.076Z" fill="#00249B"/>
<path d="M44.6842 43.1858C44.5257 43.0272 44.3671 42.8686 44.2085 42.71C44.5687 42.6669 44.7273 42.8255 44.6842 43.1858Z" fill="#00249B"/>
<path d="M42.7144 42.0703C42.5331 42.0613 42.3519 42.0511 42.1707 42.0421C42.3689 41.8778 42.6079 41.9276 42.8141 41.9763C42.899 41.9968 42.7574 42.0409 42.7144 42.0703Z" fill="#00229B"/>
<path d="M58.4542 43.5615C58.8482 43.5615 59.2456 43.5264 59.635 43.5694C60.2962 43.6419 60.6053 44.0167 60.5996 44.6576C60.594 45.2827 60.312 45.5974 59.6577 45.7027C58.8923 45.8273 58.1213 45.7639 57.3526 45.7843C57.1228 45.7899 57.0605 45.6835 57.0617 45.4785C57.0662 44.9339 57.073 44.3881 57.0583 43.8446C57.0515 43.5966 57.1398 43.5151 57.3821 43.5264C57.7387 43.5423 58.0953 43.531 58.4531 43.531C58.4531 43.5412 58.4531 43.5514 58.4531 43.5615H58.4542Z" fill="#013398"/>
<path d="M40.057 46.4364C40.057 45.6099 40.0752 44.7822 40.0491 43.9567C40.0378 43.5977 40.1589 43.4992 40.4974 43.5242C40.965 43.5593 41.4383 43.5276 41.9036 43.574C42.9338 43.677 43.4999 44.1322 43.6833 45.1377C43.8644 46.1353 43.8803 47.1555 43.5814 48.1463C43.3583 48.8834 42.8772 49.2571 42.0994 49.2945C41.539 49.3217 40.9763 49.2967 40.4148 49.3217C40.0955 49.3363 40.048 49.1869 40.0514 48.9152C40.0638 48.0886 40.0559 47.2619 40.0559 46.4353L40.057 46.4364Z" fill="#003398"/>
<path d="M48.9522 43.6441C49.7968 43.4176 50.6391 43.4538 51.4384 43.7833C51.9037 43.9758 52.0486 44.4412 51.9954 44.9179C51.9388 45.4241 51.6467 45.7796 51.1384 45.9144C50.4546 46.0956 49.7572 46.0049 49.0643 46.0004C48.942 45.3969 49.0485 44.7866 49.0077 44.1808C48.9952 44.0019 49.0824 43.8105 48.9522 43.6441Z" fill="#003398"/>
<path d="M48.9522 43.6442C49.053 43.6601 49.1029 43.6907 49.0995 43.8209C49.079 44.5478 49.0745 45.2747 49.0654 46.0006C48.942 46.0108 48.9024 45.9372 48.9047 45.8319C48.9206 45.1026 48.9375 44.3735 48.9534 43.6431L48.9522 43.6442Z" fill="#00229B"/>
</g>
</g>
<defs>
<clipPath id="clip0_1_314">
<rect width="90" height="90" fill="white" transform="translate(0.785645)"/>
</clipPath>
</defs>
</svg>
