<svg width="113" height="90" viewBox="0 0 113 90" fill="none" xmlns="http://www.w3.org/2000/svg">
<g opacity="0.8">
<mask id="mask0_1_227" style="mask-type:luminance" maskUnits="userSpaceOnUse" x="0" y="0" width="112" height="90">
<path d="M111.91 0.0612793H0.56665V89.6322H111.91V0.0612793Z" fill="white"/>
</mask>
<g mask="url(#mask0_1_227)">
<path d="M49.2753 29.8121C49.2641 29.8121 49.253 29.8121 49.2418 29.8121C49.2418 29.8019 49.2418 29.8019 49.2418 29.7917L49.2753 29.8121Z" fill="#4D63AC"/>
<path d="M79.7989 28.6221C80.8191 30.371 82.4489 30.9934 84.2781 32.1629C79.9514 32.3883 76.5743 30.8002 73.0566 29.8346C72.9394 29.9633 72.8338 30.1028 72.7166 30.2316C73.9595 31.1221 75.2024 32.0127 76.4337 32.9033C73.5961 32.9355 71.2978 32.0234 68.9996 31.0577C68.0381 30.65 66.9593 29.4912 65.9392 30.4998C64.8019 31.6264 66.6897 32.1844 67.0179 33.2145H63.3244C65.2826 35.2639 65.5288 37.3884 64.837 39.6738C64.1452 41.9808 62.3863 43.44 60.264 44.5881C58.2472 45.6826 56.1483 46.6376 54.0963 47.6783C53.6859 47.8929 53.041 47.9788 53.0527 48.5582C53.0527 49.1269 53.6391 49.2342 54.0846 49.4488C56.1717 50.4252 57.9306 51.702 58.7866 53.7944C59.5487 55.6721 59.2908 57.346 57.5788 58.6872C56.2304 59.7387 54.8116 60.7366 53.4163 61.7452C52.5134 62.3891 52.3492 63.0221 53.4163 63.6552C53.4749 63.6874 53.5217 63.7195 53.5687 63.7517C58.6928 67.8291 58.7162 70.8549 53.6391 75.0932C51.7747 76.649 51.7746 76.649 53.5921 78.2479C55.1164 79.5676 55.5151 81.5422 54.4364 83.1622C53.2521 84.9436 51.5284 86.2525 49.6054 87.3464C49.2185 87.0144 49.1599 86.5845 49.2185 86.1345C49.2419 86.0166 49.2771 85.8979 49.324 85.7908C49.3943 85.877 49.4881 85.9522 49.6054 86.0267C49.7813 85.662 49.922 85.2757 50.1448 84.9327C52.572 81.2202 52.5837 81.2202 49.582 78.0764C49.5233 78.2052 49.4764 78.3332 49.4295 78.452C49.3943 78.3976 49.3474 78.3441 49.3123 78.2797C49.2537 78.1944 49.2067 78.1191 49.1599 78.033C49.1129 77.9577 49.0777 77.8833 49.0425 77.7971C49.0074 77.7327 48.9839 77.6683 48.9605 77.5931C48.8197 77.1748 48.8197 76.7563 48.9371 76.3379C48.9723 76.2199 49.0074 76.1126 49.0425 75.9945C49.0777 75.8872 49.1129 75.7907 49.1599 75.6834C49.195 75.5868 49.2302 75.4902 49.2771 75.3829C49.2888 75.3508 49.3005 75.3186 49.3123 75.2864C49.3123 75.3078 49.3123 75.3293 49.3123 75.3508C49.3123 75.4151 49.5116 75.4581 49.6171 75.5117C50.2503 73.9451 51.9388 73.2906 53.0879 72.164C55.0344 70.2433 55.0344 69.0308 53.1583 67.0673C52.0795 65.9406 50.4731 65.329 49.6288 63.9985C49.5233 64.0522 49.324 64.1058 49.324 64.1595C49.324 64.1702 49.324 64.1702 49.324 64.1809C49.2654 64.0629 49.2185 63.9449 49.1715 63.8268C49.1364 63.7303 49.1012 63.6337 49.0661 63.5371C49.1129 63.4513 49.1715 63.3655 49.2067 63.2796C49.2067 62.829 49.2067 62.3676 49.2185 61.9169C49.1715 61.8311 49.1129 61.7452 49.0543 61.6701C49.0777 61.595 49.1129 61.5091 49.1481 61.434C49.1715 61.3804 49.195 61.3267 49.2067 61.2731C49.2302 61.2194 49.2419 61.1765 49.2653 61.1229C49.3709 60.8975 49.4999 60.6937 49.6523 60.5005C49.6288 60.801 49.5937 61.1121 49.5702 61.4126C49.8634 60.4898 50.7311 60.0928 51.5049 59.61C52.6541 58.9018 53.8618 58.258 54.7998 57.2923C56.1952 55.8545 56.1249 54.2987 54.5184 53.054C53.8032 52.5068 52.9238 52.1312 52.1147 51.6913C51.1531 51.1656 50.0392 50.8008 49.6171 49.7063C49.453 49.76 49.3475 49.8351 49.2771 49.9209C49.2771 49.9102 49.2653 49.8995 49.2653 49.8995C49.2185 49.8136 49.1833 49.7385 49.1364 49.6527C49.0895 49.5561 49.0543 49.4702 49.0191 49.3737C49.1012 49.2342 49.1715 49.0947 49.2302 48.9444C49.2185 48.4938 49.2067 48.0324 49.195 47.5818C49.1364 47.4959 49.0895 47.4101 49.0309 47.3243C49.0543 47.2492 49.0777 47.1848 49.1129 47.1097C49.1364 47.0453 49.1715 46.9702 49.195 46.9058C49.2653 46.7556 49.3357 46.6054 49.4295 46.4766C49.4764 46.6805 49.5233 46.8843 49.5702 47.0775C50.0392 45.8114 51.3525 45.5539 52.4782 45.071C55.3392 43.8263 58.2355 42.6353 60.4868 40.5322C61.507 39.5773 61.847 38.4185 61.0027 37.206C60.135 35.9613 58.8452 35.9827 57.4733 36.4119C56.4532 36.7231 55.8083 37.3991 55.2689 38.2146C54.8116 38.9013 54.366 39.6309 53.768 40.2103C52.4078 41.5194 50.7193 41.2404 49.6054 39.6202C49.6288 39.8348 49.6523 40.0386 49.664 40.2532C49.6054 40.1781 49.5468 40.103 49.4999 40.0279C49.3943 39.867 49.2888 39.6953 49.2067 39.5129C49.2067 39.5022 49.195 39.4914 49.195 39.4914C49.1481 39.1695 49.1364 38.8477 49.1599 38.5258C49.1715 38.4185 49.1715 38.3112 49.1833 38.2039C49.2185 37.9786 49.2771 37.764 49.3709 37.5816C49.4061 37.6889 49.453 37.7854 49.4999 37.8927C49.535 37.9678 49.582 38.0429 49.6171 38.1288C49.6406 37.5386 50.0744 37.1094 50.5552 36.927C52.361 36.251 52.9824 34.5664 54.6826 33.2681H49.2537C49.3357 34.5128 48.9723 35.7896 49.2067 37.0236C49.1247 37.2275 48.9839 37.4099 48.7495 37.5708C48.6673 37.5708 48.597 37.5708 48.5267 37.5708C48.5149 37.5708 48.5149 37.5708 48.5032 37.5708C48.4797 37.5386 48.468 37.5172 48.4446 37.485C47.4596 36.6909 46.1229 36.2724 45.431 35.1458C44.4579 33.5686 42.8397 32.7853 41.0106 32.3668C36.285 31.2938 32.7439 34.0514 33.2013 38.4507C33.4358 40.6502 34.6083 42.3885 36.5665 43.6761C38.9937 45.2641 41.6437 46.5303 44.3171 47.732C44.7041 47.9037 45.2552 48.0431 45.3021 48.4831C45.3608 49.0518 44.7393 49.1805 44.3055 49.3844C43.1094 49.9424 41.9485 50.554 41.0692 51.4875C38.3957 54.3524 38.1729 57.1313 41.7141 59.5027C42.6873 60.1572 43.6019 60.8761 44.5985 61.4984C45.7477 62.2281 45.9939 62.8719 44.751 63.7625C43.6957 64.5135 42.7811 65.4041 42.0189 66.4235C40.3539 68.666 40.307 70.3399 42.1127 72.4751C43.0742 73.6232 44.2585 74.6104 45.3842 75.6405C46.0994 76.3057 46.4512 76.8744 45.5366 77.6683C42.2769 80.501 42.4176 82.765 45.9705 85.4045C46.6975 85.9522 47.4948 86.4457 47.9521 87.3573C47.3306 87.4007 46.7795 87.4434 46.2284 87.4752C26.6349 85.6302 12.6697 76.6276 5.27079 59.8353C0.815053 49.7063 1.14337 39.3412 5.35288 29.1157C5.61084 28.5041 5.71637 27.8495 6.6896 27.6134C12.9863 26.0898 18.38 22.9567 23.6214 19.5553C25.3334 18.4501 27.1978 17.5488 29.2028 16.9802C32.6267 16.0038 35.6285 17.0123 37.5397 19.8558C38.5012 21.2828 39.2282 22.8386 40.0139 24.3516C41.8665 27.9139 45.1848 29.3946 49.2419 29.8131C48.9605 31.2938 49.4295 31.6157 51.1767 31.3367C55.2806 30.6929 58.212 28.9011 59.7598 25.3066C60.2053 24.2872 60.8386 23.3429 61.3193 22.3343C63.3127 18.1497 67.7098 18.0746 70.993 20.1348C76.5157 23.6112 82.6482 26.004 88.6398 28.6328C89.9881 29.223 91.4422 29.5985 93.3657 30.253C88.3937 31.0577 84.2664 29.5556 79.7989 28.6221Z" fill="#4D63AC"/>
<path d="M49.2654 8.18165C48.1397 9.08297 48.0811 10.3813 47.7293 11.5508C47.3072 12.9458 46.627 13.5895 44.9738 13.4071C43.5667 13.2569 42.1362 13.375 40.2484 13.375C41.8313 14.4586 42.8983 15.3707 44.153 16.0037C45.5953 16.7227 45.6304 17.5596 45.1145 18.815C44.6338 19.963 44.0005 21.1219 44.0005 22.6241C45.5717 21.6799 46.9788 20.8215 48.3859 19.9738C48.3977 19.9201 48.4094 19.8558 48.4094 19.8021C48.4563 19.8128 48.5032 19.8236 48.5501 19.845C48.6908 19.8987 48.8432 20.006 48.9956 20.1562C49.0191 22.8923 49.2654 25.6285 48.8784 28.3538C45.6304 28.2358 43.6019 26.4976 42.3942 23.9653C41.5616 22.2271 41.0691 20.3493 40.5063 18.5145C38.9117 13.3428 34.7373 11.5508 28.98 12.8814C25.6851 13.6432 23.0585 15.4994 20.4203 17.3021C17.3599 19.4051 14.1823 21.2936 10.6294 22.6134C9.9962 22.8494 9.39817 23.2035 8.47186 23.1391C12.9394 16.2612 18.8491 10.9178 26.3652 7.1194C32.9081 3.81459 39.92 2.04416 47.401 1.78665C48.8198 1.733 49.324 2.06562 49.2184 3.40686C49.1012 4.99488 49.2536 6.6151 49.2654 8.18165Z" fill="#4D63AC"/>
<path d="M46.0878 45.2318C43.4496 44.2232 40.9168 43.0322 38.6656 41.3906C37.4109 40.4785 36.5666 39.427 36.977 37.8175C37.2467 36.7981 37.9972 36.3367 38.9938 36.2616C40.6941 36.1436 42.0894 36.6908 42.9571 38.1287C43.2972 38.6866 43.6372 39.2446 44.0242 39.7703C44.927 41.0043 46.2286 41.4228 47.6474 40.736C49.1131 40.0278 49.3476 38.869 48.5033 37.5815C48.4799 37.5493 48.4682 37.5278 48.4447 37.4956C48.4682 37.5278 48.5034 37.5493 48.5268 37.5815C48.8317 37.9034 49.031 38.2253 49.1483 38.5471C49.2655 38.8798 49.2889 39.2124 49.1951 39.545C49.1013 39.8776 48.9137 40.1995 48.6089 40.5107C47.6356 41.5086 45.8299 41.691 44.6105 40.8862C43.8717 40.4034 43.4144 39.6845 42.9337 38.9978C42.7226 38.6974 42.5585 38.3862 42.3357 38.1072C41.5735 37.1308 40.5299 36.6372 39.2284 36.7445C38.4076 36.8089 37.7509 37.2059 37.5281 37.957C37.1529 39.1909 37.8565 40.1244 38.7945 40.8648C41.0928 42.6567 43.8248 43.794 46.5217 44.9636C47.6591 45.4572 48.7847 45.9723 49.1131 47.1525C49.1599 47.292 49.1835 47.4529 49.1951 47.6139C49.1365 47.528 49.0897 47.4422 49.031 47.3564C48.3392 46.3585 47.3191 45.6933 46.0878 45.2318Z" fill="#FEFEFE"/>
<path d="M45.5836 58.9771C41.1747 56.1981 41.3741 53.9019 46.1816 51.6808C47.3659 51.1336 48.4095 50.4791 49.0309 49.4168C49.113 49.2773 49.1834 49.1378 49.242 48.9875C49.242 49.2451 49.2068 49.4812 49.1482 49.7065C48.8902 50.6078 48.1398 51.1872 47.19 51.6379C46.0643 52.1636 44.9152 52.6572 44.0241 53.5371C42.6522 54.889 42.617 55.7903 44.0123 57.153C44.927 58.0436 46.0291 58.7304 47.108 59.4492C47.9405 59.9965 48.8785 60.5007 49.1482 61.4664C49.1951 61.6166 49.2186 61.7776 49.2186 61.9493C49.1716 61.8634 49.113 61.7776 49.0544 61.7025C48.2101 60.4686 46.85 59.7819 45.5836 58.9771Z" fill="#FEFEFE"/>
<path d="M49.2536 87.4753C48.5853 85.8017 47.6941 84.2562 46.4395 82.8829C45.3841 81.7246 45.7711 80.6298 46.8733 79.6639C47.5886 79.0416 48.468 78.5699 49.0542 77.8189C49.0191 77.7545 48.9956 77.6901 48.9722 77.6148C48.8315 77.1963 48.8315 76.7778 48.9488 76.3594C48.984 76.2414 49.0191 76.1341 49.0542 76.016C48.2569 74.7178 47.0726 73.752 45.8415 72.797C43.0039 70.6189 43.0039 68.7519 45.7593 66.4772C46.885 65.5437 48.2804 64.8355 49.0542 63.5694C49.1012 63.4835 49.1598 63.3977 49.195 63.3119C49.2184 63.505 49.195 63.6874 49.1598 63.8483C49.0191 64.4063 48.5735 64.8247 48.0927 65.2218C47.3306 65.8441 46.5333 66.4235 45.8063 67.0673C43.6605 68.9772 43.7191 70.576 46.0056 72.3464C46.8382 72.9902 47.6589 73.6233 48.3507 74.3851C48.7142 74.7821 49.0426 75.2006 49.1598 75.6942C49.2068 75.8766 49.2184 76.059 49.195 76.2628C49.1832 76.7135 49.1832 77.1748 49.1716 77.6257C49.195 77.7754 49.1832 77.9042 49.1598 78.033C49.0542 78.6017 48.5384 78.9563 48.0693 79.3318C45.947 81.0053 45.9118 81.3591 47.5534 83.5052C48.4797 84.707 49.4295 85.8979 49.2536 87.4753Z" fill="#FEFEFE"/>
<path d="M49.2418 29.7808C49.2533 29.7808 49.2647 29.7808 49.2762 29.7808V29.8119L49.2418 29.7808Z" fill="#4D63AC"/>
<path d="M49.2886 28.3647V28.3966C49.277 28.3966 49.2654 28.3966 49.2654 28.3966C49.2654 28.3859 49.2654 28.3859 49.2886 28.3647C49.277 28.3754 49.277 28.3647 49.2886 28.3647Z" fill="#4D63AC"/>
<path d="M103.883 25.9933C102.066 27.4848 100.307 28.2681 98.2083 28.4183C94.5618 28.6865 91.2079 27.5814 87.8659 26.4761C83.8326 25.1457 80.2211 23.1285 76.7621 20.8537C74.4521 19.3301 72.0366 17.9352 69.2928 17.0875C65.7985 16.0146 62.703 16.948 60.7683 19.8237C59.8068 21.2507 59.1384 22.828 58.3293 24.3409C56.4885 27.8067 53.2756 29.3411 49.2654 29.781C49.2654 29.3196 49.2771 28.8582 49.2771 28.3969C52.7362 28.2252 54.7765 26.2937 56.0545 23.5899C56.7347 22.1627 57.1568 20.6284 57.5554 19.1155C59.2908 12.5702 64.497 11.3149 70.7468 13.3213C73.9127 14.3299 76.4923 16.2828 79.0837 18.139C84.3016 21.8838 95.8399 26.3367 103.883 25.9933Z" fill="#4D63AC"/>
<path d="M49.2886 28.3647C49.277 28.3647 49.277 28.3754 49.2886 28.3647C49.277 28.3859 49.2654 28.3859 49.2654 28.3966V28.3647C49.2654 28.3647 49.277 28.3647 49.2886 28.3647Z" fill="#4D63AD"/>
<path d="M54.6592 22.9674C52.7479 21.7335 51.1298 20.6927 49.2537 19.4909C49.2537 22.6456 49.2537 25.5104 49.2537 28.3645C49.1247 28.3645 48.9958 28.3538 48.8668 28.3538C48.8668 26.0899 48.8784 23.8258 48.855 21.5511C48.855 20.9931 49.0426 20.36 48.3625 19.963C48.3743 19.9094 48.386 19.845 48.386 19.7914C48.4329 19.8021 48.4798 19.8128 48.5267 19.8343C49.113 19.3515 49.2185 18.7291 49.2068 17.9995C49.1833 14.7269 49.2302 11.4542 49.242 8.18164C50.0511 9.35118 50.3559 10.6924 50.7311 11.9907C51.0477 13.1174 51.6574 13.4501 52.8535 13.3857C54.4247 13.2998 56.0076 13.3642 58.0714 13.3642C56.3946 14.5016 55.1048 15.4672 53.7094 16.2934C52.8183 16.8192 52.5486 17.3021 52.9707 18.257C53.6274 19.6841 54.0495 21.1863 54.6592 22.9674Z" fill="#4D63AD"/>
<path d="M49.6407 87.3574C49.5117 87.4009 49.3828 87.4435 49.2538 87.4862C48.5854 85.8127 47.6943 84.2672 46.4396 82.8939C45.3843 81.7355 45.7713 80.6408 46.8734 79.6748C47.5887 79.0526 48.4681 78.5809 49.0544 77.8298C49.1014 77.7755 49.1482 77.7111 49.1834 77.6576C49.3241 77.8081 49.4648 77.9586 49.6055 78.1084C49.5469 78.2372 49.5 78.366 49.4531 78.4839C48.7964 80.287 49.371 82.1646 49.242 83.9995C49.2068 84.5783 48.8902 85.2649 49.3593 85.8127C49.4296 85.898 49.5234 85.9733 49.6407 86.0485C49.629 86.4776 49.6407 86.9175 49.6407 87.3574Z" fill="#5469AF"/>
<path d="M49.4414 46.5302C49.4883 46.734 49.5352 46.9379 49.5821 47.1311C49.4649 47.292 49.3359 47.4637 49.2186 47.6247C49.1599 47.5388 49.1131 47.453 49.0545 47.3671C48.3509 46.3478 47.3191 45.6933 46.0878 45.2212C43.4496 44.2126 40.9168 43.0215 38.6656 41.3798C37.4109 40.4678 36.5666 39.4163 36.977 37.8068C37.2467 36.7875 37.9972 36.3261 38.9938 36.251C40.6941 36.133 42.0894 36.6802 42.9571 38.1179C43.2972 38.6759 43.6372 39.2339 44.0242 39.7597C44.927 40.9936 46.2286 41.412 47.6474 40.7253C49.1131 40.0172 49.3476 38.8583 48.5033 37.5707C48.4799 37.5385 48.4682 37.5171 48.4447 37.4849C49.2069 36.8197 48.7379 35.972 48.8669 35.2102C48.9841 34.5664 48.5854 33.826 49.2655 33.2788C49.3476 34.5234 48.9841 35.8003 49.2186 37.0342C49.2538 37.2167 49.3007 37.4098 49.3711 37.5922C49.4062 37.6995 49.4531 37.7961 49.5 37.9034C49.5235 37.9785 49.5587 38.0536 49.6173 38.1394C49.6055 38.6437 49.6055 39.148 49.5938 39.6524C49.6173 39.867 49.6407 40.0708 49.6525 40.2854C49.5938 40.2103 49.5352 40.1352 49.4883 40.0601C48.9723 42.2275 48.9841 44.3735 49.4414 46.5302Z" fill="#4D63AD"/>
<path d="M49.6642 40.2964C49.6056 40.2213 49.5469 40.1461 49.5 40.071C49.5352 39.9315 49.5704 39.8028 49.6056 39.6633C49.629 39.8779 49.6408 40.0818 49.6642 40.2964Z" fill="#FEFEFE"/>
<path d="M49.6642 60.533C49.6406 60.8334 49.6055 61.1446 49.582 61.445C49.4648 61.6059 49.3475 61.7776 49.2186 61.9493C49.1716 61.8635 49.113 61.7776 49.0544 61.7025C48.2101 60.4686 46.85 59.7818 45.5836 58.9878C41.1747 56.2088 41.3741 53.9126 46.1816 51.6915C47.3659 51.1443 48.4095 50.4897 49.0309 49.4275C49.113 49.288 49.1834 49.1485 49.242 48.9983C49.371 49.2558 49.4882 49.5026 49.6172 49.7601C49.453 49.8138 49.3475 49.8889 49.2772 49.9747C49.113 50.2 49.1951 50.5219 49.1951 50.7902C49.1834 53.9877 49.1834 57.1745 49.1951 60.372C49.1951 60.6403 49.1364 60.93 49.2654 61.166C49.371 60.9407 49.5116 60.7261 49.6642 60.533Z" fill="#4E64AD"/>
<path d="M49.6639 60.5327C49.6405 60.8331 49.6053 61.1443 49.5819 61.4447C49.4295 61.3589 49.3357 61.2623 49.2769 61.155C49.3708 60.9405 49.5115 60.7259 49.6639 60.5327Z" fill="#FEFEFE"/>
<path d="M49.6288 75.5439C49.6288 75.8551 49.5585 76.1233 49.2068 76.2735C49.1598 76.1877 49.1129 76.1019 49.0542 76.016C48.2569 74.7178 47.0726 73.752 45.8415 72.797C43.0039 70.6189 43.0039 68.7519 45.7593 66.4772C46.885 65.5437 48.2804 64.8355 49.0542 63.5694C49.1012 63.4835 49.1598 63.3977 49.195 63.3119C49.5233 63.4513 49.6171 63.7196 49.6288 64.0307C49.5233 64.0844 49.324 64.138 49.324 64.1917C49.324 64.2024 49.324 64.2024 49.324 64.2131C49.1129 67.915 49.1246 71.6168 49.324 75.3186C49.324 75.3401 49.324 75.3615 49.324 75.383C49.324 75.4366 49.5233 75.4903 49.6288 75.5439Z" fill="#4F65AD"/>
<path d="M48.4096 19.7913C48.4564 19.802 48.5034 19.8127 48.5502 19.8342C48.5034 19.8771 48.4447 19.92 48.386 19.963C48.386 19.9093 48.3978 19.8557 48.4096 19.7913Z" fill="#FDFDFD"/>
<path d="M72.7752 49.8564C71.2274 50.0281 71.0985 50.2428 71.0985 51.7771V58.9018C71.0985 60.5112 71.2743 60.5971 72.7752 60.7902V61.0048H68.0849V60.7902C69.6328 60.5971 69.75 60.3717 69.75 58.9018V55.0819H63.0195V58.9018C63.0195 60.4039 63.1954 60.5971 64.6962 60.7902V61.0048H60.006V60.7902C61.5303 60.6185 61.6711 60.4039 61.6711 58.9018V51.7771C61.6711 50.114 61.5538 50.0711 60.006 49.8564V49.6418H64.6962V49.8564C63.1485 50.0496 63.0195 50.1891 63.0195 51.7771V54.5884H69.75V51.7771C69.75 50.2106 69.668 50.0174 68.0849 49.8564V49.6418H72.7752V49.8564Z" fill="#4D63AC"/>
<path d="M74.1354 60.9941V60.7795C75.648 60.5327 75.8005 60.3825 75.8005 59.0305V51.6162C75.8005 50.1677 75.6715 50.0818 74.1354 49.8564V49.6418H78.8257V49.8564C77.2778 50.0496 77.1489 50.1677 77.1489 51.6162V59.0413C77.1489 60.3717 77.2778 60.522 78.8257 60.7902V61.0048H74.1354V60.9941Z" fill="#4D63AC"/>
<path d="M84.7235 49.6418C86.0253 49.6418 87.0335 49.8672 87.7601 50.3607C88.4876 50.8865 88.9799 51.6697 88.9799 52.7856C88.9799 55.1248 86.7992 56.2407 85.028 56.2407C84.8174 56.2407 84.6296 56.2085 84.4773 56.1656L83.1992 55.8866V59.0948C83.1992 60.4575 83.3751 60.5648 84.8757 60.7687V60.9833H80.1858V60.7687C81.7101 60.5755 81.8508 60.4146 81.8508 59.0412V51.5624C81.8508 50.1139 81.7335 50.0281 80.2326 49.835V49.6204H84.7235V49.6418ZM83.1992 55.5647C83.4689 55.672 83.9966 55.7364 84.5594 55.7364C85.8612 55.7364 87.4556 55.1784 87.4556 52.8071C87.4556 50.865 86.1775 49.9959 84.4773 49.9959C83.9614 49.9959 83.5393 50.0818 83.422 50.189C83.2696 50.3071 83.1875 50.5753 83.1875 51.2405V55.5647H83.1992Z" fill="#4D63AC"/>
<path d="M95.6757 60.994V60.7794C96.7305 60.6077 97.0122 60.4682 96.7779 59.8351C96.5318 59.0841 96.0505 57.8072 95.4761 56.3587H91.6418C91.2197 57.4746 90.856 58.3652 90.5752 59.2021C90.1531 60.3931 90.4458 60.5111 91.888 60.7687V60.9833H87.9014V60.7687C88.968 60.597 89.2971 60.4682 90 58.8266L93.9637 49.4165L94.2335 49.3843C95.4177 52.5603 96.6603 55.7578 97.9384 59.009C98.5246 60.5326 98.7589 60.5326 99.955 60.7687V60.9833H95.6757V60.994ZM93.6118 51.4122C93.002 52.893 92.4276 54.4166 91.8414 55.8651H95.312L93.6118 51.4122Z" fill="#4D63AC"/>
<path d="M107.542 60.994V60.7794C108.597 60.6077 108.878 60.4682 108.644 59.8351C108.398 59.0841 107.917 57.8072 107.342 56.3587H103.508C103.086 57.4746 102.723 58.3652 102.441 59.2021C102.019 60.3931 102.312 60.5111 103.754 60.7687V60.9833H99.7672V60.7687C100.835 60.597 101.163 60.4682 101.867 58.8266L105.829 49.4165L106.099 49.3843C107.284 52.5603 108.526 55.7578 109.804 59.009C110.391 60.5326 110.626 60.5326 111.822 60.7687V60.9833H107.542V60.994ZM105.489 51.4122C104.88 52.893 104.305 54.4166 103.719 55.8651H107.19L105.489 51.4122Z" fill="#4D63AC"/>
</g>
</g>
</svg>
