<svg width="50" height="50" viewBox="0 0 50 50" fill="none" xmlns="http://www.w3.org/2000/svg">
<g clip-path="url(#clip0_1_391)">
<path d="M27.7216 2.65836C27.7216 1.12036 26.4717 -0.14086 24.9414 0.0126865C22.2381 0.283927 19.5839 0.949837 17.0646 1.99337C13.6859 3.39286 10.616 5.44413 8.03006 8.03006C5.44413 10.616 3.39286 13.6859 1.99337 17.0646C0.949836 19.5839 0.283926 22.2381 0.0126865 24.9414C-0.14086 26.4717 1.12036 27.7216 2.65836 27.7216H24.9368C26.4748 27.7216 27.7216 26.4748 27.7216 24.9368L27.7216 2.65836Z" fill="url(#paint0_linear_1_391)"/>
<g filter="url(#filter0_bi_1_391)">
<circle cx="27.7216" cy="27.7215" r="22.2784" fill="#1D1D1D" fill-opacity="0.05"/>
<circle cx="27.7216" cy="27.7215" r="22.2784" fill="url(#paint1_linear_1_391)" fill-opacity="0.2"/>
<circle cx="27.7216" cy="27.7215" r="22.1784" stroke="url(#paint2_linear_1_391)" stroke-opacity="0.1" stroke-width="0.2"/>
</g>
</g>
<defs>
<filter id="filter0_bi_1_391" x="2.44318" y="2.44312" width="50.5568" height="50.5569" filterUnits="userSpaceOnUse" color-interpolation-filters="sRGB">
<feFlood flood-opacity="0" result="BackgroundImageFix"/>
<feGaussianBlur in="BackgroundImageFix" stdDeviation="1.5"/>
<feComposite in2="SourceAlpha" operator="in" result="effect1_backgroundBlur_1_391"/>
<feBlend mode="normal" in="SourceGraphic" in2="effect1_backgroundBlur_1_391" result="shape"/>
<feColorMatrix in="SourceAlpha" type="matrix" values="0 0 0 0 0 0 0 0 0 0 0 0 0 0 0 0 0 0 127 0" result="hardAlpha"/>
<feOffset dy="0.5"/>
<feGaussianBlur stdDeviation="1"/>
<feComposite in2="hardAlpha" operator="arithmetic" k2="-1" k3="1"/>
<feColorMatrix type="matrix" values="0 0 0 0 1 0 0 0 0 1 0 0 0 0 1 0 0 0 0.15 0"/>
<feBlend mode="normal" in2="shape" result="effect2_innerShadow_1_391"/>
</filter>
<linearGradient id="paint0_linear_1_391" x1="1.15507" y1="5.54432" x2="31.3739" y2="9.74138" gradientUnits="userSpaceOnUse">
<stop stop-color="#AE49B0"/>
<stop offset="1" stop-color="#5568FE"/>
</linearGradient>
<linearGradient id="paint1_linear_1_391" x1="7.29971" y1="14.3545" x2="55.8704" y2="21.1004" gradientUnits="userSpaceOnUse">
<stop stop-color="#FE82DB"/>
<stop offset="1" stop-color="#68E4FF"/>
</linearGradient>
<linearGradient id="paint2_linear_1_391" x1="6.83558" y1="7.46843" x2="50" y2="7.46843" gradientUnits="userSpaceOnUse">
<stop stop-color="#FD84DC"/>
<stop offset="1" stop-color="#7FD6FA"/>
</linearGradient>
<clipPath id="clip0_1_391">
<rect width="50" height="50" fill="white"/>
</clipPath>
</defs>
</svg>
