<svg width="50" height="50" viewBox="0 0 50 50" fill="none" xmlns="http://www.w3.org/2000/svg">
<g clip-path="url(#clip0_1_220)">
<circle cx="18.7178" cy="30.4828" r="13.2355" transform="rotate(45 18.7178 30.4828)" fill="url(#paint0_linear_1_220)"/>
<g filter="url(#filter0_bi_1_220)">
<path d="M48.2828 2.69592L33.654 0.606092C30.8399 0.204071 27.9829 0.204072 25.1687 0.606092L10.5399 2.69592C9.55463 2.83668 8.82277 3.68052 8.82277 4.67582V20.8263C8.82277 31.592 14.5913 41.5323 23.9386 46.8736L28.4191 49.4339C29.034 49.7852 29.7888 49.7852 30.4036 49.4339L34.8841 46.8736C44.2314 41.5323 50 31.592 50 20.8263V4.67582C50 3.68052 49.2681 2.83668 48.2828 2.69592Z" fill="#1D1D1D" fill-opacity="0.05"/>
<path d="M48.2828 2.69592L33.654 0.606092C30.8399 0.204071 27.9829 0.204072 25.1687 0.606092L10.5399 2.69592C9.55463 2.83668 8.82277 3.68052 8.82277 4.67582V20.8263C8.82277 31.592 14.5913 41.5323 23.9386 46.8736L28.4191 49.4339C29.034 49.7852 29.7888 49.7852 30.4036 49.4339L34.8841 46.8736C44.2314 41.5323 50 31.592 50 20.8263V4.67582C50 3.68052 49.2681 2.83668 48.2828 2.69592Z" fill="url(#paint1_linear_1_220)" fill-opacity="0.2"/>
<path d="M33.6399 0.705087L48.2687 2.79491C49.2047 2.92863 49.9 3.73028 49.9 4.67582V20.8263C49.9 31.5561 44.1506 41.4633 34.8345 46.7868L30.354 49.347C29.7699 49.6808 29.0528 49.6808 28.4687 49.347L23.9882 46.7868C14.6721 41.4633 8.92277 31.5561 8.92277 20.8263V4.67582C8.92277 3.73029 9.61804 2.92863 10.5541 2.79491L25.1829 0.705087C27.9876 0.304407 30.8351 0.304406 33.6399 0.705087Z" stroke="url(#paint2_linear_1_220)" stroke-opacity="0.1" stroke-width="0.2"/>
</g>
<g filter="url(#filter1_i_1_220)">
<path d="M40.3645 19.4094C41.4469 18.3334 41.4469 16.589 40.3645 15.513C39.2822 14.4371 37.5274 14.4371 36.4451 15.513L26.1968 25.701L22.3777 21.9044C21.2953 20.8284 19.5405 20.8284 18.4582 21.9044C17.3759 22.9803 17.3759 24.7248 18.4582 25.8007L24.1806 31.4895C24.1989 31.5086 24.2174 31.5276 24.2363 31.5464C24.7182 32.0255 25.3336 32.2913 25.9635 32.3437C25.985 32.3455 26.0065 32.347 26.028 32.3483C26.7927 32.3946 27.5731 32.1274 28.1574 31.5465C28.1777 31.5263 28.1976 31.5059 28.2172 31.4852L40.3645 19.4094Z" fill="white" fill-opacity="0.3"/>
</g>
</g>
<defs>
<filter id="filter0_bi_1_220" x="5.82277" y="-2.69531" width="47.1772" height="55.3926" filterUnits="userSpaceOnUse" color-interpolation-filters="sRGB">
<feFlood flood-opacity="0" result="BackgroundImageFix"/>
<feGaussianBlur in="BackgroundImageFix" stdDeviation="1.5"/>
<feComposite in2="SourceAlpha" operator="in" result="effect1_backgroundBlur_1_220"/>
<feBlend mode="normal" in="SourceGraphic" in2="effect1_backgroundBlur_1_220" result="shape"/>
<feColorMatrix in="SourceAlpha" type="matrix" values="0 0 0 0 0 0 0 0 0 0 0 0 0 0 0 0 0 0 127 0" result="hardAlpha"/>
<feOffset dy="0.5"/>
<feGaussianBlur stdDeviation="1"/>
<feComposite in2="hardAlpha" operator="arithmetic" k2="-1" k3="1"/>
<feColorMatrix type="matrix" values="0 0 0 0 1 0 0 0 0 1 0 0 0 0 1 0 0 0 0.15 0"/>
<feBlend mode="normal" in2="shape" result="effect2_innerShadow_1_220"/>
</filter>
<filter id="filter1_i_1_220" x="17.6465" y="14.7061" width="23.5298" height="18.1475" filterUnits="userSpaceOnUse" color-interpolation-filters="sRGB">
<feFlood flood-opacity="0" result="BackgroundImageFix"/>
<feBlend mode="normal" in="SourceGraphic" in2="BackgroundImageFix" result="shape"/>
<feColorMatrix in="SourceAlpha" type="matrix" values="0 0 0 0 0 0 0 0 0 0 0 0 0 0 0 0 0 0 127 0" result="hardAlpha"/>
<feOffset dy="0.5"/>
<feGaussianBlur stdDeviation="0.25"/>
<feComposite in2="hardAlpha" operator="arithmetic" k2="-1" k3="1"/>
<feColorMatrix type="matrix" values="0 0 0 0 1 0 0 0 0 1 0 0 0 0 1 0 0 0 0.1 0"/>
<feBlend mode="normal" in2="shape" result="effect1_innerShadow_1_220"/>
</filter>
<linearGradient id="paint0_linear_1_220" x1="6.58524" y1="22.5414" x2="35.4409" y2="26.5492" gradientUnits="userSpaceOnUse">
<stop stop-color="#AE49B0"/>
<stop offset="1" stop-color="#5568FE"/>
</linearGradient>
<linearGradient id="paint1_linear_1_220" x1="10.5385" y1="10.0002" x2="55.7001" y2="15.1657" gradientUnits="userSpaceOnUse">
<stop stop-color="#FE82DB"/>
<stop offset="1" stop-color="#68E4FF"/>
</linearGradient>
<linearGradient id="paint2_linear_1_220" x1="10.1096" y1="2.27277" x2="50" y2="2.27277" gradientUnits="userSpaceOnUse">
<stop stop-color="#FD84DC"/>
<stop offset="1" stop-color="#7FD6FA"/>
</linearGradient>
<clipPath id="clip0_1_220">
<rect width="50" height="50" fill="white"/>
</clipPath>
</defs>
</svg>
