<svg width="50" height="50" viewBox="0 0 50 50" fill="none" xmlns="http://www.w3.org/2000/svg">
<path d="M36.1111 8C36.1111 5.79086 34.3203 4 32.1111 4H4C1.79087 4 3.8147e-06 5.79086 3.8147e-06 8V34.0973C3.8147e-06 35.584 1.56463 36.551 2.89443 35.8861L11.1111 31.7778H32.1111C34.3203 31.7778 36.1111 29.9869 36.1111 27.7778V8Z" fill="url(#paint0_linear_1_380)"/>
<g filter="url(#filter0_bi_1_380)">
<path d="M13.8889 16.3333C13.8889 14.1241 15.6797 12.3333 17.8889 12.3333H46C48.2091 12.3333 50 14.1241 50 16.3333V42.4305C50 43.9173 48.4354 44.8843 47.1056 44.2194L38.8889 40.111H17.8889C15.6797 40.111 13.8889 38.3202 13.8889 36.111V16.3333Z" fill="#1D1D1D" fill-opacity="0.05"/>
<path d="M13.8889 16.3333C13.8889 14.1241 15.6797 12.3333 17.8889 12.3333H46C48.2091 12.3333 50 14.1241 50 16.3333V42.4305C50 43.9173 48.4354 44.8843 47.1056 44.2194L38.8889 40.111H17.8889C15.6797 40.111 13.8889 38.3202 13.8889 36.111V16.3333Z" fill="url(#paint1_linear_1_380)" fill-opacity="0.2"/>
<path d="M38.9336 40.0216L38.9125 40.011H38.8889H17.8889C15.735 40.011 13.9889 38.2649 13.9889 36.111V16.3333C13.9889 14.1793 15.735 12.4333 17.8889 12.4333H46C48.1539 12.4333 49.9 14.1793 49.9 16.3333V42.4305C49.9 43.8429 48.4136 44.7616 47.1503 44.1299L38.9336 40.0216Z" stroke="url(#paint2_linear_1_380)" stroke-opacity="0.1" stroke-width="0.2"/>
</g>
<g filter="url(#filter1_i_1_380)">
<rect x="19.4445" y="17.8889" width="25" height="5.55556" rx="2" fill="white" fill-opacity="0.2"/>
</g>
<g filter="url(#filter2_i_1_380)">
<rect x="19.4445" y="29" width="25" height="5.55556" rx="2" fill="white" fill-opacity="0.2"/>
</g>
<defs>
<filter id="filter0_bi_1_380" x="10.8889" y="9.33325" width="42.1111" height="38.0999" filterUnits="userSpaceOnUse" color-interpolation-filters="sRGB">
<feFlood flood-opacity="0" result="BackgroundImageFix"/>
<feGaussianBlur in="BackgroundImageFix" stdDeviation="1.5"/>
<feComposite in2="SourceAlpha" operator="in" result="effect1_backgroundBlur_1_380"/>
<feBlend mode="normal" in="SourceGraphic" in2="effect1_backgroundBlur_1_380" result="shape"/>
<feColorMatrix in="SourceAlpha" type="matrix" values="0 0 0 0 0 0 0 0 0 0 0 0 0 0 0 0 0 0 127 0" result="hardAlpha"/>
<feOffset dy="0.5"/>
<feGaussianBlur stdDeviation="1"/>
<feComposite in2="hardAlpha" operator="arithmetic" k2="-1" k3="1"/>
<feColorMatrix type="matrix" values="0 0 0 0 1 0 0 0 0 1 0 0 0 0 1 0 0 0 0.15 0"/>
<feBlend mode="normal" in2="shape" result="effect2_innerShadow_1_380"/>
</filter>
<filter id="filter1_i_1_380" x="19.4445" y="17.8889" width="25" height="6.05566" filterUnits="userSpaceOnUse" color-interpolation-filters="sRGB">
<feFlood flood-opacity="0" result="BackgroundImageFix"/>
<feBlend mode="normal" in="SourceGraphic" in2="BackgroundImageFix" result="shape"/>
<feColorMatrix in="SourceAlpha" type="matrix" values="0 0 0 0 0 0 0 0 0 0 0 0 0 0 0 0 0 0 127 0" result="hardAlpha"/>
<feOffset dy="0.5"/>
<feGaussianBlur stdDeviation="0.25"/>
<feComposite in2="hardAlpha" operator="arithmetic" k2="-1" k3="1"/>
<feColorMatrix type="matrix" values="0 0 0 0 1 0 0 0 0 1 0 0 0 0 1 0 0 0 0.1 0"/>
<feBlend mode="normal" in2="shape" result="effect1_innerShadow_1_380"/>
</filter>
<filter id="filter2_i_1_380" x="19.4445" y="29" width="25" height="6.05566" filterUnits="userSpaceOnUse" color-interpolation-filters="sRGB">
<feFlood flood-opacity="0" result="BackgroundImageFix"/>
<feBlend mode="normal" in="SourceGraphic" in2="BackgroundImageFix" result="shape"/>
<feColorMatrix in="SourceAlpha" type="matrix" values="0 0 0 0 0 0 0 0 0 0 0 0 0 0 0 0 0 0 127 0" result="hardAlpha"/>
<feOffset dy="0.5"/>
<feGaussianBlur stdDeviation="0.25"/>
<feComposite in2="hardAlpha" operator="arithmetic" k2="-1" k3="1"/>
<feColorMatrix type="matrix" values="0 0 0 0 1 0 0 0 0 1 0 0 0 0 1 0 0 0 0.1 0"/>
<feBlend mode="normal" in2="shape" result="effect1_innerShadow_1_380"/>
</filter>
<linearGradient id="paint0_linear_1_380" x1="34.6065" y1="10.6667" x2="-4.62872" y2="16.5701" gradientUnits="userSpaceOnUse">
<stop stop-color="#AE49B0"/>
<stop offset="1" stop-color="#5568FE"/>
</linearGradient>
<linearGradient id="paint1_linear_1_380" x1="15.3935" y1="18.9999" x2="54.6287" y2="24.9034" gradientUnits="userSpaceOnUse">
<stop stop-color="#FE82DB"/>
<stop offset="1" stop-color="#68E4FF"/>
</linearGradient>
<linearGradient id="paint2_linear_1_380" x1="15.0174" y1="13.8484" x2="50" y2="13.8484" gradientUnits="userSpaceOnUse">
<stop stop-color="#FD84DC"/>
<stop offset="1" stop-color="#7FD6FA"/>
</linearGradient>
</defs>
</svg>
